<svg xmlns="http://www.w3.org/2000/svg" xmlns:xlink="http://www.w3.org/1999/xlink" width="414" height="736" viewBox="0 0 414 736">
  <defs>
    <filter id="Rectangle_3" x="313" y="-2" width="96" height="116" filterUnits="userSpaceOnUse">
      <feOffset input="SourceAlpha"/>
      <feGaussianBlur stdDeviation="5" result="blur"/>
      <feFlood flood-opacity="0.502"/>
      <feComposite operator="in" in2="blur"/>
      <feComposite in="SourceGraphic"/>
    </filter>
    <filter id="Line_5" x="17.5" y="294" width="360" height="7" filterUnits="userSpaceOnUse">
      <feOffset dy="1" input="SourceAlpha"/>
      <feGaussianBlur stdDeviation="1" result="blur-2"/>
      <feFlood flood-opacity="0.161"/>
      <feComposite operator="in" in2="blur-2"/>
      <feComposite in="SourceGraphic"/>
    </filter>
    <filter id="Line_5-2" x="17.5" y="339" width="360" height="7" filterUnits="userSpaceOnUse">
      <feOffset dy="1" input="SourceAlpha"/>
      <feGaussianBlur stdDeviation="1" result="blur-3"/>
      <feFlood flood-opacity="0.161"/>
      <feComposite operator="in" in2="blur-3"/>
      <feComposite in="SourceGraphic"/>
    </filter>
    <filter id="Line_5-3" x="17.5" y="384" width="360" height="7" filterUnits="userSpaceOnUse">
      <feOffset dy="1" input="SourceAlpha"/>
      <feGaussianBlur stdDeviation="1" result="blur-4"/>
      <feFlood flood-opacity="0.161"/>
      <feComposite operator="in" in2="blur-4"/>
      <feComposite in="SourceGraphic"/>
    </filter>
    <filter id="Rectangle_22" x="6" y="495" width="173" height="60" filterUnits="userSpaceOnUse">
      <feOffset dx="-5" dy="3" input="SourceAlpha"/>
      <feGaussianBlur stdDeviation="3" result="blur-5"/>
      <feFlood flood-opacity="0.161"/>
      <feComposite operator="in" in2="blur-5"/>
      <feComposite in="SourceGraphic"/>
    </filter>
    <filter id="Rectangle_23" x="205" y="495" width="173" height="60" filterUnits="userSpaceOnUse">
      <feOffset dx="-5" dy="3" input="SourceAlpha"/>
      <feGaussianBlur stdDeviation="3" result="blur-6"/>
      <feFlood flood-opacity="0.161"/>
      <feComposite operator="in" in2="blur-6"/>
      <feComposite in="SourceGraphic"/>
    </filter>
    <filter id="Ellipse_1" x="147.5" y="609.5" width="120" height="120" filterUnits="userSpaceOnUse">
      <feOffset input="SourceAlpha"/>
      <feGaussianBlur stdDeviation="7.5" result="blur-7"/>
      <feFlood flood-opacity="0.49"/>
      <feComposite operator="in" in2="blur-7"/>
      <feComposite in="SourceGraphic"/>
    </filter>
    <clipPath id="clip-Bill_-_paid_1">
      <rect width="414" height="736"/>
    </clipPath>
  </defs>
  <g id="Bill_-_paid_1" data-name="Bill - paid – 1" clip-path="url(#clip-Bill_-_paid_1)">
    <rect width="414" height="736" fill="#fff"/>
    <g id="top-bar">
      <rect id="Rectangle_1" data-name="Rectangle 1" width="414" height="56" fill="#194e78"/>
      <g id="top-right-logo">
        <g transform="matrix(1, 0, 0, 1, 0, 0)" filter="url(#Rectangle_3)">
          <rect id="Rectangle_3-2" data-name="Rectangle 3" width="66" height="86" rx="6" transform="translate(328 13)" fill="#194e78"/>
        </g>
        <g id="logo" transform="translate(333.461 22.903)">
          <path id="Path_1" data-name="Path 1" d="M85.468.053V40.926H81.729V3.892h-16.9v11.5l-.126.035-1.669-3.313L61.11,15.745l-.1-.029V3.878c-.193-.01-.337-.024-.482-.024q-6.446,0-12.892,0a5.607,5.607,0,0,0-5.558,4.789,7.38,7.38,0,0,0-.035,1.1q0,16.288,0,32.576v.589c-.625-.338-1.174-.682-1.761-.939a11.511,11.511,0,0,0-1.69-.556c-.281-.075-.388-.2-.359-.471a3.857,3.857,0,0,0,0-.407c0-10.181.014-20.362-.012-30.543a10.168,10.168,0,0,1,1.34-5.365A9.336,9.336,0,0,1,42.8,1.381,9.24,9.24,0,0,1,47.675.039Q66.343.021,85.01.033C85.155.03,85.3.043,85.468.053Z" transform="translate(-34.312)" fill="#fff"/>
          <path id="Path_2" data-name="Path 2" d="M0,428.155v-3.4H6.01c.038-.074.074-.108.072-.142a6.3,6.3,0,0,0-.942-3.395,2.992,2.992,0,0,0-1.567-1.029,9.582,9.582,0,0,0-3.127-.368c-.135,0-.269,0-.437,0v-3.367a.924.924,0,0,1,.18-.038,11.716,11.716,0,0,1,5.57,1.069A6.285,6.285,0,0,1,7.738,419.2c1.23,1.489,1.408,3.3,1.611,5.1.04.354.124.488.5.482,1.261-.021,2.521-.008,3.782-.009.106,0,.213-.011.42-.023-.337-.552-.611-1.074-.953-1.545a4.945,4.945,0,0,1-.9-3.617,3.307,3.307,0,0,1,1.209-2.105,4.635,4.635,0,0,1,3.3-1.129,32.336,32.336,0,0,1,3.367.1,4.132,4.132,0,0,1,3.592,4.046,4.621,4.621,0,0,1-.91,2.649c-.327.494-.617,1.012-.963,1.587.188.017.313.038.437.038,1.437,0,2.874-.009,4.311.008.373.005.487-.11.482-.485-.02-1.382,0-2.766-.011-4.148-.01-1.082-.043-2.163-.082-3.244-.011-.318.1-.423.418-.415.813.021,1.627.024,2.44,0,.35-.01.452.116.424.444-.024.281-.005.566-.005.908.277-.216.514-.4.752-.586a4.075,4.075,0,0,1,2.562-.892c1.748,0,3.5.028,5.245.059a1.641,1.641,0,0,1,1.515,1.311,2.566,2.566,0,0,1,.054.484c.031,2.016.072,4.033.073,6.05,0,.429.137.527.533.513.772-.027,1.545,0,2.318-.019.109,0,.314-.161.307-.231a5.323,5.323,0,0,1,1.08-3.381c.959-1.521,1.916-3.043,2.894-4.551a.687.687,0,0,1,.485-.266c.839-.027,1.681-.022,2.52,0a.6.6,0,0,1,.429.21c1.044,1.533,2.112,3.05,3.081,4.63a8.32,8.32,0,0,1,.942,2.312,3.914,3.914,0,0,1-2.478,4.311,6.315,6.315,0,0,1-2.187.362q-24.724,0-49.449.005C.6,428.155.317,428.155,0,428.155Zm37.1-8.343c-1.458,0-2.856-.079-4.24.022a2.813,2.813,0,0,0-2.552,2.587c-.053.687-.011,1.38-.022,2.07,0,.258.148.278.343.278,2.045,0,4.09,0,6.135,0,.275,0,.346-.119.34-.369-.011-.582,0-1.165,0-1.747ZM17.91,424.654l.977-1.594c.459-.748.94-1.486,1.37-2.25a.622.622,0,0,0-.547-1c-1.176-.034-2.353-.04-3.528-.009-.648.016-.9.5-.6,1.077.174.334.39.647.588.969Zm31.441-4.718c-.787,1.254-1.567,2.436-2.282,3.658-.376.644-.058,1.129.685,1.139q1.583.02,3.166,0c.845-.012,1.127-.481.7-1.19C50.9,422.352,50.139,421.186,49.352,419.936Z" transform="translate(0 -373.713)" fill="#fff"/>
          <path id="Path_3" data-name="Path 3" d="M42.13,555.217H42.6c4.311,0,8.622.014,12.933-.007a5.373,5.373,0,0,0,4.781-2.732,5.108,5.108,0,0,0,.764-2.949c-.018-.389.129-.481.489-.472.975.02,1.952.017,2.928,0,.322-.005.418.106.411.422a9.4,9.4,0,0,1-1.608,5.362c-.066.094-.116.2-.2.354.2.008.339.021.483.021,4.189,0,8.378.013,12.567,0a5.407,5.407,0,0,0,5.2-3.371,8.951,8.951,0,0,0,.451-2.131,3.68,3.68,0,0,0,.005-.616h3.84c-.08.815-.107,1.626-.247,2.416a9.348,9.348,0,0,1-9.069,7.517q-18.789.031-37.578.017c-.35,0-.43-.125-.429-.448q.014-4.555,0-9.11c0-.335.1-.447.439-.44.99.02,1.979.019,2.968.005.32,0,.414.105.412.422-.013,1.735-.006,3.47-.006,5.205C42.13,554.841,42.13,555,42.13,555.217Z" transform="translate(-34.402 -492.882)" fill="#fff"/>
          <path id="Path_4" data-name="Path 4" d="M265.067,295.1H261.32V283.054l.077-.034,1.925,3.632,1.669-3.307.076.022Q265.068,289.232,265.067,295.1Z" transform="translate(-234.601 -254.055)" fill="#fff"/>
          <path id="Path_5" data-name="Path 5" d="M255.18,236.73c-.937-2.107-1.874-4.215-2.85-6.41h5.66q-1.348,3.195-2.7,6.4Z" transform="translate(-226.53 -206.743)" fill="#fff"/>
          <path id="Path_6" data-name="Path 6" d="M257.937,158.253H252.26c.976-2.2,1.915-4.308,2.854-6.418l.106-.005C256.123,153.962,257.024,156.094,257.937,158.253Z" transform="translate(-226.468 -136.278)" fill="#fff"/>
        </g>
      </g>
      <g id="notification-bell" transform="translate(16.987 12.143)">
        <path id="Path_20" data-name="Path 20" d="M14.89,29.979a3.583,3.583,0,0,1-1.548-.7,3.057,3.057,0,0,1-1.15-2.394c0-.088,0-.175-.009-.262,0-.018-.015-.034-.04-.084H3.827c-.653,0-.867-.224-.8-.875a3.76,3.76,0,0,1,1.625-2.818.486.486,0,0,0,.237-.45q-.011-4.464-.005-8.927A10.236,10.236,0,0,1,8.805,5.146a9.444,9.444,0,0,1,3.538-1.814c.246-.067.341-.166.327-.435A2.59,2.59,0,0,1,13.713.541a2.5,2.5,0,0,1,2.6-.314,2.474,2.474,0,0,1,1.567,2.124c.014.126.029.252.033.378.016.56.02.545.531.727A10.335,10.335,0,0,1,25.5,13.423c0,2.946,0,5.892-.007,8.839a.48.48,0,0,0,.257.465,3.746,3.746,0,0,1,1.806,3.132q.03.674-.716.673-4.024,0-8.048,0h-.374c-.02.245-.031.474-.057.7a3.127,3.127,0,0,1-2.489,2.687,1.212,1.212,0,0,0-.159.056ZM6.051,22.431h.388q4.916,0,9.832,0a1.743,1.743,0,0,1,.433.043.539.539,0,0,1,.414.565.56.56,0,0,1-.451.54,1.912,1.912,0,0,1-.378.021H5.9a.7.7,0,0,0-.315.029A2.6,2.6,0,0,0,4.26,25.339H26.318a2.615,2.615,0,0,0-1.452-1.768.852.852,0,0,1-.548-.89c.01-3.1,0-6.2.007-9.306a8.938,8.938,0,0,0-1.149-4.567,8.939,8.939,0,0,0-6.625-4.6,8.663,8.663,0,0,0-6.529,1.5,8.978,8.978,0,0,0-3.97,7.706c-.01,2.887,0,5.774,0,8.662C6.051,22.181,6.051,22.288,6.051,22.431Zm7.336,4.113a1.943,1.943,0,0,0,.926,1.99,1.914,1.914,0,0,0,2.856-1.991ZM16.715,2.905a1.457,1.457,0,0,0-.694-1.524,1.4,1.4,0,0,0-1.6.082,1.439,1.439,0,0,0-.574,1.442Z" fill="#fff"/>
        <path id="Path_21" data-name="Path 21" d="M211.051,307.22a.583.583,0,0,1-.581-.573.592.592,0,0,1,.57-.588.6.6,0,0,1,.586.577A.591.591,0,0,1,211.051,307.22Z" transform="translate(-192.247 -283.622)" fill="#fff"/>
      </g>
    </g>
    <g id="heading" transform="translate(0 -6)">
      <text id="Bill_TD24153" data-name="Bill # TD24153" transform="translate(207 106)" fill="#194e78" font-size="24" font-family="Roboto-Bold, Roboto" font-weight="700"><tspan x="-79.623" y="0">Bill # TD24153</tspan></text>
      <line id="Line_1" data-name="Line 1" x2="160" transform="translate(127.5 117.5)" fill="none" stroke="#194e78" stroke-width="2"/>
    </g>
    <text id="Sunday_23-03-2020" data-name="Sunday, 23-03-2020" transform="translate(124 137)" fill="#6e6e6e" font-size="12" font-family="Roboto-Regular, Roboto"><tspan x="-105.182" y="0">Sunday, 23-03-2020</tspan></text>
    <g id="Bill_Detail" data-name="Bill Detail" transform="translate(-54 -111)">
      <text id="Bill_Detail-2" data-name="Bill Detail" transform="translate(149 298)" fill="#194e78" font-size="18" font-family="Roboto-Medium, Roboto" font-weight="500"><tspan x="-75.964" y="0">Bill Detail</tspan></text>
      <text id="Lorem_ipsum_dolor_sit_amet_consectetur_adipiscing_elit._Duis_condimentum_mi_ipsum._Quisque_eget_mattis_mauris._Donec_in_elit_velit." data-name="Lorem ipsum dolor sit amet, consectetur adipiscing elit. Duis condimentum mi ipsum. Quisque eget mattis mauris. Donec in elit velit." transform="translate(73 309)" fill="#6e6e6e" font-size="12" font-family="Roboto-Regular, Roboto"><tspan x="0" y="13">Lorem ipsum dolor sit amet, consectetur adipiscing elit. Duis </tspan><tspan x="0" y="29">condimentum mi ipsum. Quisque eget mattis mauris. Donec in elit </tspan><tspan x="0" y="45">velit.</tspan></text>
    </g>
    <g id="Payment_Status" data-name="Payment Status" transform="translate(-51 -103)">
      <text id="Amount" transform="translate(73 386)" fill="#194e78" font-size="18" font-family="Roboto-Medium, Roboto" font-weight="500"><tspan x="0" y="0">Amount</tspan></text>
      <text id="_350_Riyals" data-name="350 Riyals" transform="translate(425 386)" fill="#7a0001" font-size="18" font-family="Roboto-Medium, Roboto" font-weight="500"><tspan x="-83.391" y="0">350 Riyals</tspan></text>
      <g transform="matrix(1, 0, 0, 1, 51, 103)" filter="url(#Line_5)">
        <line id="Line_5-4" data-name="Line 5" x2="354" transform="translate(20.5 296.5)" fill="none" stroke="#d5d5d5" stroke-width="1"/>
      </g>
    </g>
    <g id="Payment_Status-2" data-name="Payment Status" transform="translate(-51 -58)">
      <text id="Payment_Status-3" data-name="Payment Status" transform="translate(73 386)" fill="#194e78" font-size="18" font-family="Roboto-Medium, Roboto" font-weight="500"><tspan x="0" y="0">Payment Status</tspan></text>
      <text id="Unpaid" transform="translate(425 386)" fill="#7a0001" font-size="18" font-family="Roboto-Medium, Roboto" font-weight="500"><tspan x="-56.373" y="0">Unpaid</tspan></text>
      <g transform="matrix(1, 0, 0, 1, 51, 58)" filter="url(#Line_5-2)">
        <line id="Line_5-5" data-name="Line 5" x2="354" transform="translate(20.5 341.5)" fill="none" stroke="#d5d5d5" stroke-width="1"/>
      </g>
    </g>
    <g id="Payment_Status-4" data-name="Payment Status" transform="translate(-51 -13)">
      <text id="Receipt_Status" data-name="Receipt Status" transform="translate(73 386)" fill="#194e78" font-size="18" font-family="Roboto-Medium, Roboto" font-weight="500"><tspan x="0" y="0">Receipt Status</tspan></text>
      <text id="Waiting" transform="translate(425 386)" fill="#fabe11" font-size="18" font-family="Roboto-Medium, Roboto" font-weight="500"><tspan x="-60.68" y="0">Waiting</tspan></text>
      <g transform="matrix(1, 0, 0, 1, 51, 13)" filter="url(#Line_5-3)">
        <line id="Line_5-6" data-name="Line 5" x2="354" transform="translate(20.5 386.5)" fill="none" stroke="#d5d5d5" stroke-width="1"/>
      </g>
    </g>
    <g id="buttons" transform="translate(0 -5)">
      <g id="Group_9" data-name="Group 9" transform="translate(29)">
        <g transform="matrix(1, 0, 0, 1, -29, 5)" filter="url(#Rectangle_22)">
          <rect id="Rectangle_22-2" data-name="Rectangle 22" width="155" height="42" rx="9" transform="translate(20 501)" fill="#194e78"/>
        </g>
        <text id="Update_Payment" data-name="Update Payment" transform="translate(10 533)" fill="#fff" font-size="16" font-family="Roboto-Medium, Roboto" font-weight="500"><tspan x="0" y="0">Update Payment</tspan></text>
        <g id="btn-cancel">
          <g transform="matrix(1, 0, 0, 1, -29, 5)" filter="url(#Rectangle_23)">
            <rect id="Rectangle_23-2" data-name="Rectangle 23" width="155" height="42" rx="9" transform="translate(219 501)" fill="#6e6e6e"/>
          </g>
          <text id="Back" transform="translate(250 533)" fill="#fff" font-size="16" font-family="Roboto-Medium, Roboto" font-weight="500"><tspan x="0" y="0">Back</tspan></text>
        </g>
      </g>
    </g>
    <g id="bottom-bar" transform="translate(0 632)">
      <rect id="bottom-rectangle" width="414" height="66" transform="translate(0 38)" fill="#194e78"/>
      <g id="home-icon" transform="translate(7 -626.398)">
        <g transform="matrix(1, 0, 0, 1, -7, -5.6)" filter="url(#Ellipse_1)">
          <circle id="Ellipse_1-2" data-name="Ellipse 1" cx="37.5" cy="37.5" r="37.5" transform="translate(170 632)" fill="#194e78"/>
        </g>
        <g id="home" transform="translate(177.327 644.541)">
          <path id="Path_18" data-name="Path 18" d="M0,18.737a5.056,5.056,0,0,1,.581-.689Q10.794,9.524,21.018,1.015a3.612,3.612,0,0,1,5.036.008q3.194,2.662,6.381,5.333c.115.1.236.187.419.332.012-.213.026-.355.026-.5,0-1.624,0-3.247,0-4.871,0-.93.3-1.228,1.245-1.229q2.5,0,5.009,0c.894,0,1.215.327,1.215,1.224,0,3.722.006,7.445-.008,11.167a.887.887,0,0,0,.368.771c1.917,1.575,3.821,3.165,5.73,4.751.777.645.821,1.087.181,1.852-.473.563-.941,1.129-1.418,1.69a1.021,1.021,0,0,1-1.661.142L24.132,5.5c-.187-.156-.376-.311-.6-.5-.734.61-1.461,1.213-2.187,1.818L3.559,21.655a1.041,1.041,0,0,1-1.727-.147C1.216,20.772.61,20.028,0,19.287,0,19.1,0,18.921,0,18.737Z" transform="translate(0 0.004)" fill="#fff"/>
          <path id="Path_19" data-name="Path 19" d="M72.964,89.1V77.959H65.473V89.138h-.558q-5.146,0-10.293,0A1.962,1.962,0,0,1,52.4,86.91q0-6.663-.005-13.326a.85.85,0,0,1,.32-.75q8.058-6.621,16.1-13.262c.128-.1.262-.2.416-.321,1.206.992,2.4,1.973,3.589,2.955q6.435,5.3,12.872,10.6a.85.85,0,0,1,.353.734c-.01,4.519,0,9.037-.009,13.555a1.893,1.893,0,0,1-2,2.035c-3.584.012-7.168,0-10.752,0A3.107,3.107,0,0,1,72.964,89.1Z" transform="translate(-45.681 -51.663)" fill="#fff"/>
        </g>
      </g>
      <g id="question" transform="translate(367.042 55.681)">
        <path id="Path_22" data-name="Path 22" d="M13.164,96.254A1.973,1.973,0,0,1,12.1,95.231c-.42-.769-.888-1.513-1.3-2.285a1.971,1.971,0,0,0-1.242-.99,13.236,13.236,0,0,1-7.243-5.339,13.433,13.433,0,0,1-.038-15c.125-.187.267-.33.508-.293.345.054.464.4.272.742C2.7,72.694,2.3,73.309,2,73.968A12.555,12.555,0,0,0,9.816,91.1a2.772,2.772,0,0,1,1.749,1.382c.468.857.97,1.695,1.46,2.539.264.454.612.453.876,0,.511-.879,1.023-1.756,1.523-2.641a2.5,2.5,0,0,1,1.518-1.221c.381-.114.753-.258,1.13-.388.316-.109.555-.028.656.219s-.016.5-.341.622c-.373.14-.748.277-1.13.386a1.7,1.7,0,0,0-1.067.847c-.447.8-.926,1.582-1.366,2.386a1.972,1.972,0,0,1-1.063,1.023Z" transform="translate(0 -65.615)" fill="#fff"/>
        <path id="Path_23" data-name="Path 23" d="M65.962,13.5a13.5,13.5,0,0,1-6.636,11.551.7.7,0,0,1-.468.126.577.577,0,0,1-.335-.324c-.081-.205.039-.376.226-.5.5-.331,1.016-.636,1.478-1.012a12.263,12.263,0,0,0,4.784-10.49A12.455,12.455,0,0,0,54.726,1.11,12.274,12.274,0,0,0,43.471,4.718c-.085.084-.165.173-.25.257a.469.469,0,0,1-.686.074.453.453,0,0,1,.04-.686A23.79,23.79,0,0,1,44.559,2.6,13.144,13.144,0,0,1,53.084.01a13.474,13.474,0,0,1,12.544,10.6,9.624,9.624,0,0,1,.177,1.03C65.871,12.263,65.911,12.89,65.962,13.5Z" transform="translate(-39.004)" fill="#fff"/>
        <path id="Path_24" data-name="Path 24" d="M113.179,75.845c0-.4,0-.8,0-1.2a1.609,1.609,0,0,1,1.605-1.657,1.436,1.436,0,1,0-1.433-1.425,1.611,1.611,0,1,1-3.218-.123,4.653,4.653,0,0,1,9.117-1.2c.106.363.014.606-.258.692s-.487-.075-.6-.426a3.676,3.676,0,0,0-3.215-2.689,3.759,3.759,0,0,0-4.1,3.184c-.017.138-.037.277-.042.417a.718.718,0,1,0,1.422.057,2.335,2.335,0,1,1,2.5,2.4c-.675.05-.875.264-.875.936,0,.758,0,1.516,0,2.273a.719.719,0,0,0,.516.724.669.669,0,0,0,.761-.273,1.137,1.137,0,0,0,.14-.506c.019-.458.011-.917,0-1.376a.481.481,0,0,1,.365-.513,3.753,3.753,0,0,0,2.606-2.863c.075-.317.3-.476.55-.415a.458.458,0,0,1,.319.611,4.584,4.584,0,0,1-2.7,3.327.357.357,0,0,0-.249.4c.014.309.01.618,0,.927a1.609,1.609,0,0,1-3.218,0C113.172,76.7,113.179,76.275,113.179,75.845Z" transform="translate(-101.327 -61.564)" fill="#fff"/>
        <path id="Path_25" data-name="Path 25" d="M148.639,227.245a5.328,5.328,0,0,1-.68-.066,1.261,1.261,0,0,1-1.007-1.121,4.709,4.709,0,0,1-.007-.895,1.254,1.254,0,0,1,1.114-1.183,4.818,4.818,0,0,1,1.218.012,1.236,1.236,0,0,1,1.05,1.11,4.922,4.922,0,0,1,.022.776,1.334,1.334,0,0,1-1.409,1.347h-.3A.076.076,0,0,1,148.639,227.245Zm.019-2.4c-.119,0-.239,0-.358,0a.449.449,0,0,0-.472.44c-.072.625.021.928.318,1.02a.5.5,0,0,0,.147.02c.229,0,.458.008.687,0,.307-.012.454-.171.475-.5.042-.669-.05-.908-.379-.975a.836.836,0,0,0-.149-.01C148.838,224.845,148.748,224.846,148.658,224.847Z" transform="translate(-135.177 -206.046)" fill="#fff"/>
      </g>
      <g id="setting" transform="translate(291 56)">
        <path id="Path_119" data-name="Path 119" d="M1.02,13.384V16.6l2.037.515c.282.071.565.141.848.207a.6.6,0,0,1,.482.473A9.926,9.926,0,0,0,5.5,20.5a.634.634,0,0,1-.008.728c-.469.761-.918,1.536-1.389,2.3a.281.281,0,0,0,.048.421c.641.625,1.277,1.257,1.9,1.9.16.166.268.15.447.04.743-.459,1.5-.893,2.244-1.356a.665.665,0,0,1,.782-.019,8.819,8.819,0,0,0,2.64,1.094.657.657,0,0,1,.527.543c.225.94.464,1.878.7,2.831h3.226c.233-.928.477-1.853.693-2.783a.717.717,0,0,1,.585-.6,8.858,8.858,0,0,0,2.581-1.077.664.664,0,0,1,.782,0c.759.473,1.53.93,2.3,1.38a.347.347,0,0,0,.312.009c.726-.7,1.437-1.418,2.169-2.147l-.868-1.457c-.225-.375-.444-.753-.676-1.123a.547.547,0,0,1-.022-.616,10.654,10.654,0,0,0,1.163-2.816.607.607,0,0,1,.516-.437c.848-.207,1.7-.42,2.543-.632.1-.024.2-.054.3-.082V13.386c-.933-.234-1.857-.477-2.786-.693a.713.713,0,0,1-.6-.584,8.629,8.629,0,0,0-1.076-2.581.663.663,0,0,1,0-.782c.468-.751.909-1.517,1.373-2.271.1-.166.12-.271-.035-.422q-.974-.947-1.923-1.921a.265.265,0,0,0-.4-.047c-.753.464-1.52.9-2.27,1.373a.686.686,0,0,1-.81.013,8.827,8.827,0,0,0-2.553-1.062.74.74,0,0,1-.607-.617c-.214-.93-.459-1.853-.7-2.794H13.263c-.535,0-.743-.135-.752-.487C12.5.145,12.719,0,13.263,0h3.594c.441,0,.564.094.674.529.225.887.453,1.773.664,2.663a.471.471,0,0,0,.348.371q1.047.4,2.071.857a.446.446,0,0,0,.481-.012c.788-.486,1.586-.958,2.38-1.433.389-.233.5-.221.817.093q1.328,1.324,2.651,2.652a.535.535,0,0,1,.1.8c-.474.8-.947,1.592-1.432,2.381a.445.445,0,0,0-.028.481c.31.691.6,1.393.873,2.1a.453.453,0,0,0,.352.33c.91.218,1.817.449,2.724.68a.525.525,0,0,1,.478.619q0,1.89,0,3.781c0,.377-.113.52-.484.615-.907.23-1.814.461-2.724.679a.452.452,0,0,0-.352.33c-.272.707-.564,1.407-.868,2.1a.424.424,0,0,0,.014.453c.485.789.957,1.586,1.431,2.381.227.381.207.536-.108.852q-1.3,1.305-2.608,2.608c-.312.312-.47.33-.852.1-.787-.469-1.575-.936-2.355-1.415a.444.444,0,0,0-.481-.026c-.691.311-1.392.6-2.1.874a.452.452,0,0,0-.329.352c-.215.9-.444,1.8-.672,2.694-.1.407-.236.508-.659.508q-1.86,0-3.719,0c-.417,0-.546-.1-.651-.518-.228-.9-.456-1.794-.672-2.694a.45.45,0,0,0-.331-.352c-.707-.271-1.408-.562-2.1-.867a.425.425,0,0,0-.453.015c-.789.484-1.586.958-2.382,1.431-.384.229-.534.207-.851-.11Q4.4,25.6,3.1,24.293c-.314-.315-.331-.465-.1-.852.469-.787.936-1.575,1.415-2.355a.445.445,0,0,0,.025-.481c-.31-.691-.6-1.393-.873-2.1a.453.453,0,0,0-.353-.328c-.9-.216-1.8-.445-2.694-.672-.4-.1-.506-.235-.507-.628q0-1.89,0-3.781c0-.378.111-.518.486-.613.907-.23,1.814-.461,2.724-.679a.449.449,0,0,0,.35-.331c.272-.707.564-1.407.868-2.1a.424.424,0,0,0-.014-.453C3.942,8.132,3.47,7.336,3,6.54c-.229-.383-.209-.534.108-.851q1.314-1.316,2.63-2.628c.3-.3.437-.316.8-.1.814.484,1.621.979,2.441,1.453a.509.509,0,0,0,.387.013q1.1-.435,2.185-.908a.546.546,0,0,0,.263-.287c.093-.264.137-.544.21-.815a.5.5,0,1,1,.972.234c-.1.415-.208.827-.306,1.242a.581.581,0,0,1-.448.469A9.76,9.76,0,0,0,9.452,5.516a.587.587,0,0,1-.671-.038c-.763-.468-1.537-.918-2.3-1.388a.281.281,0,0,0-.421.049q-.938.962-1.9,1.9a.281.281,0,0,0-.056.42c.465.752.905,1.52,1.373,2.27a.665.665,0,0,1,.017.782A8.7,8.7,0,0,0,4.4,12.151a.657.657,0,0,1-.544.526C2.917,12.906,1.979,13.144,1.02,13.384Z" transform="translate(-0.011 0.004)" fill="#fff"/>
        <path id="Path_120" data-name="Path 120" d="M85.248,92.685a7.425,7.425,0,1,1,7.365-8.457A7.264,7.264,0,0,1,91.1,89.841a.47.47,0,0,1-.518.215c-.315-.079-.385-.416-.2-.73a11.684,11.684,0,0,0,.992-1.777,6.513,6.513,0,1,0-2.444,3.13c.1-.065.218-.169.308-.152a.748.748,0,0,1,.448.224.367.367,0,0,1-.128.546,14.078,14.078,0,0,1-1.476.816A6.919,6.919,0,0,1,85.248,92.685Z" transform="translate(-70.237 -70.26)" fill="#fff"/>
      </g>
      <g id="email" transform="translate(83.128 59.395)">
        <path id="Path_15" data-name="Path 15" d="M47.7,20.124l9.659-8.52L47.7,3.079l-.141.042c0,.558.009,1.116,0,1.674a.887.887,0,0,1-.72.978.831.831,0,0,1-1-.762A10.193,10.193,0,0,1,45.866,3.1,3.453,3.453,0,0,1,49.385,0Q57.393-.01,65.4,0q5.274,0,10.549,0a3.518,3.518,0,0,1,3.711,3.81q.005,7.8,0,15.608a3.513,3.513,0,0,1-3.686,3.792q-13.219,0-26.437,0A3.535,3.535,0,0,1,45.82,19.4c0-.319,0-.639,0-.959.008-.627.34-1.015.865-1.016s.858.375.87,1.01c.01.547,0,1.094,0,1.641ZM48.954,1.81c.173.164.261.254.356.338q6.34,5.582,12.681,11.164a.955.955,0,0,0,1.527-.016Q69.858,7.713,76.2,2.127c.093-.082.179-.171.332-.318Zm-.008,19.574h27.6l-9.763-8.616c-.822.733-1.6,1.449-2.4,2.137a2.438,2.438,0,0,1-3.064.171,3.913,3.913,0,0,1-.361-.3c-.745-.663-1.487-1.326-2.25-2.006ZM77.88,3,68.125,11.6l9.755,8.6Z" transform="translate(-38.632 0.003)" fill="#fff"/>
        <path id="Path_16" data-name="Path 16" d="M6.551,113.472c-1.739,0-3.476.009-5.214,0a1.208,1.208,0,0,1-1.314-1.461,1.237,1.237,0,0,1,1.36-.954c1.5-.013,3.007,0,4.511,0,1.953,0,3.906,0,5.858,0,.813,0,1.33.393,1.416,1.029a1.216,1.216,0,0,1-1.344,1.389C10.067,113.479,8.31,113.472,6.551,113.472Z" transform="translate(0.005 -98.486)" fill="#fff"/>
        <path id="Path_17" data-name="Path 17" d="M27.677,72.737c1.132,0,2.266-.006,3.4,0,.883.006,1.421.471,1.419,1.209s-.533,1.206-1.422,1.211q-3.369.014-6.74,0c-.877,0-1.433-.492-1.433-1.212s.565-1.2,1.435-1.206C25.451,72.733,26.565,72.737,27.677,72.737Z" transform="translate(-19.313 -64.509)" fill="#fff"/>
      </g>
      <g id="user" transform="translate(20 56)">
        <path id="Path_27" data-name="Path 27" d="M0,14.068c.076-.559.139-1.12.23-1.677A14.957,14.957,0,0,1,11.1.524a14.793,14.793,0,0,1,13,2.558.593.593,0,0,1,.186.9.625.625,0,0,1-.867.052,26.877,26.877,0,0,0-2.6-1.565,12.857,12.857,0,0,0-8.988-.907C6.068,3.091,2.474,6.831,1.4,12.691A13.22,13.22,0,0,0,5.624,25.169c.054.052.117.095.2.164A9.347,9.347,0,0,1,9.94,19.422a9.126,9.126,0,0,1,5.477-1.478,9.41,9.41,0,0,1,8.764,7.38c.075-.059.144-.106.2-.164a13.546,13.546,0,0,0,4.392-9.077A13.642,13.642,0,0,0,26.924,8c-.029-.051-.06-.1-.087-.153a.584.584,0,0,1,.2-.816.566.566,0,0,1,.805.225c.264.456.524.915.746,1.392a15.007,15.007,0,0,1-9.293,20.735,14.143,14.143,0,0,1-3.1.573,2.057,2.057,0,0,0-.254.05H14.063a1.754,1.754,0,0,0-.225-.049,14.468,14.468,0,0,1-7.036-2.4A14.774,14.774,0,0,1,.229,17.591c-.1-.545-.153-1.1-.229-1.648ZM14.948,28.836a13.778,13.778,0,0,0,7.6-2.243c.614-.4.614-.4.441-1.135a8.163,8.163,0,0,0-10.909-5.809A7.961,7.961,0,0,0,6.918,25.86a.442.442,0,0,0,.218.526A13.755,13.755,0,0,0,14.948,28.836Z" transform="translate(0 -0.001)" fill="#fff"/>
        <path id="Path_28" data-name="Path 28" d="M129.953,90.831a5.706,5.706,0,1,1,5.718-5.693A5.717,5.717,0,0,1,129.953,90.831Zm4.45-5.709a4.438,4.438,0,1,0-4.427,4.441A4.446,4.446,0,0,0,134.4,85.122Z" transform="translate(-114.966 -74.069)" fill="#fff"/>
        <path id="Path_29" data-name="Path 29" d="M322.7,61.48a.808.808,0,1,1-.806.79A.817.817,0,0,1,322.7,61.48Z" transform="translate(-296.546 -56.937)" fill="#fff"/>
      </g>
    </g>
  </g>
</svg>
