<svg xmlns="http://www.w3.org/2000/svg" width="22.47" height="24.674" viewBox="0 0 22.47 24.674">
  <g id="_3586371_calendar_date_schedule_icon" data-name="3586371_calendar_date_schedule_icon" transform="translate(-9.753 -5.474)">
    <path id="Path_158" data-name="Path 158" d="M24.158,42.441H21.441a.417.417,0,0,0-.417.417v2.717a.417.417,0,0,0,.417.417h2.717a.417.417,0,0,0,.417-.417V42.858A.417.417,0,0,0,24.158,42.441Zm-.417,2.717H21.859V43.276h1.882Z" transform="translate(-8.135 -26.68)" fill="#6e6e6e"/>
    <path id="Path_159" data-name="Path 159" d="M46.926,42.441H44.209a.417.417,0,0,0-.417.417v2.717a.417.417,0,0,0,.417.417h2.717a.418.418,0,0,0,.417-.417V42.858A.418.418,0,0,0,46.926,42.441Zm-.417,2.717H44.627V43.276h1.882Z" transform="translate(-24.567 -26.68)" fill="#6e6e6e"/>
    <path id="Path_160" data-name="Path 160" d="M68.992,42.441H66.275a.417.417,0,0,0-.417.417v2.717a.418.418,0,0,0,.417.417h2.717a.418.418,0,0,0,.417-.417V42.858A.418.418,0,0,0,68.992,42.441Zm-.417,2.717H66.693V43.276h1.882Z" transform="translate(-40.492 -26.68)" fill="#6e6e6e"/>
    <path id="Path_161" data-name="Path 161" d="M24.158,64.677H21.441a.417.417,0,0,0-.417.417v2.717a.417.417,0,0,0,.417.417h2.717a.417.417,0,0,0,.417-.417V65.094A.417.417,0,0,0,24.158,64.677Zm-.417,2.717H21.859V65.512h1.882Z" transform="translate(-8.135 -42.728)" fill="#6e6e6e"/>
    <path id="Path_162" data-name="Path 162" d="M46.926,64.677H44.209a.417.417,0,0,0-.417.417v2.717a.417.417,0,0,0,.417.417h2.717a.418.418,0,0,0,.417-.417V65.094A.418.418,0,0,0,46.926,64.677Zm-.417,2.717H44.627V65.512h1.882Z" transform="translate(-24.567 -42.728)" fill="#6e6e6e"/>
    <path id="Path_163" data-name="Path 163" d="M68.992,64.677H66.275a.418.418,0,0,0-.417.417v2.717a.418.418,0,0,0,.417.417h2.717a.418.418,0,0,0,.417-.417V65.094A.418.418,0,0,0,68.992,64.677Zm-.417,2.717H66.693V65.512h1.882Z" transform="translate(-40.492 -42.728)" fill="#6e6e6e"/>
    <path id="Path_164" data-name="Path 164" d="M31.806,7.678H29.039V7.123a1.649,1.649,0,0,0-3.3,0v.555H22.634V7.123a1.649,1.649,0,1,0-3.3,0v.555H16.229V7.123a1.649,1.649,0,0,0-3.3,0v.555H10.17a.417.417,0,0,0-.417.417V29.731a.417.417,0,0,0,.417.417H31.806a.418.418,0,0,0,.417-.417V8.1A.417.417,0,0,0,31.806,7.678Zm-5.231-.555a.814.814,0,0,1,1.628,0v2.3a.814.814,0,0,1-1.628,0Zm-5.59-.814a.815.815,0,0,1,.814.814v2.3a.814.814,0,1,1-1.628,0V8.134c0-.013,0-.026,0-.039s0-.026,0-.039V7.123A.815.815,0,0,1,20.985,6.309Zm-7.219.814a.814.814,0,0,1,1.628,0v2.3a.814.814,0,0,1-1.628,0Zm17.623,22.19h-20.8V8.513h2.343v.914a1.649,1.649,0,0,0,3.3,0V8.513h3.107v.914a1.649,1.649,0,1,0,3.3,0V8.513H25.74v.914a1.649,1.649,0,1,0,3.3,0V8.512h2.35Z" fill="#6e6e6e"/>
  </g>
</svg>
