<svg xmlns="http://www.w3.org/2000/svg" xmlns:xlink="http://www.w3.org/1999/xlink" width="306" height="123" viewBox="0 0 306 123">
  <defs>
    <filter id="Rectangle_45" x="0" y="0" width="306" height="123" filterUnits="userSpaceOnUse">
      <feOffset dy="3" input="SourceAlpha"/>
      <feGaussianBlur stdDeviation="3" result="blur"/>
      <feFlood flood-opacity="0.161"/>
      <feComposite operator="in" in2="blur"/>
      <feComposite in="SourceGraphic"/>
    </filter>
  </defs>
  <g id="Group_18" data-name="Group 18" transform="translate(-50 -181)">
    <g transform="matrix(1, 0, 0, 1, 50, 181)" filter="url(#Rectangle_45)">
      <g id="Rectangle_45-2" data-name="Rectangle 45" transform="translate(9 6)" fill="#194e78" stroke="#194e78" stroke-width="1">
        <rect width="288" height="105" rx="13" stroke="none"/>
        <rect x="0.5" y="0.5" width="287" height="104" rx="12.5" fill="none"/>
      </g>
    </g>
    <g id="Group_17" data-name="Group 17" transform="translate(0 -0.462)">
      <g id="_79-users" data-name="79-users" transform="translate(184 204.462)">
        <circle id="Ellipse_10" data-name="Ellipse 10" cx="7.186" cy="7.186" r="7.186" transform="translate(15.059 9.623)" fill="none" stroke="#fff" stroke-linecap="round" stroke-linejoin="round" stroke-width="2"/>
        <path id="Path_132" data-name="Path 132" d="M28.877,30.939A9.939,9.939,0,1,0,9,30.939Z" transform="translate(3.358 7.137)" fill="none" stroke="#fff" stroke-linecap="round" stroke-linejoin="round" stroke-width="2"/>
        <path id="Path_133" data-name="Path 133" d="M25.679,18.2A7.1,7.1,0,1,0,20,6.84" transform="translate(7.976 0)" fill="none" stroke="#fff" stroke-linecap="round" stroke-linejoin="round" stroke-width="2"/>
        <path id="Path_134" data-name="Path 134" d="M25.42,26.939h8.519A9.939,9.939,0,0,0,24,17" transform="translate(9.655 5.457)" fill="none" stroke="#fff" stroke-linecap="round" stroke-linejoin="round" stroke-width="2"/>
        <path id="Path_135" data-name="Path 135" d="M15.778,6.84A7.1,7.1,0,1,0,10.1,18.2" transform="translate(0.839 0)" fill="none" stroke="#fff" stroke-linecap="round" stroke-linejoin="round" stroke-width="2"/>
        <path id="Path_136" data-name="Path 136" d="M10.939,17A9.939,9.939,0,0,0,1,26.939H9.519" transform="translate(0 5.457)" fill="none" stroke="#fff" stroke-linecap="round" stroke-linejoin="round" stroke-width="2"/>
      </g>
      <text id="Client_Listing" data-name="Client Listing" transform="translate(207 275.538)" fill="#fff" font-size="20" font-family="Roboto-Bold, Roboto" font-weight="700"><tspan x="-73.394" y="0">CLIENT LISTING</tspan></text>
    </g>
  </g>
</svg>
