<svg xmlns="http://www.w3.org/2000/svg" width="45.675" height="45.66" viewBox="0 0 45.675 45.66">
  <g id="review" transform="translate(0)">
    <path id="Path_57" data-name="Path 57" d="M25.357,8.3c.786-.209,1.055-.083,1.412.657a13.549,13.549,0,0,1,1.352,7.081c-.04.507-.037.507.464.382A13.645,13.645,0,0,1,41.478,39.454a1.826,1.826,0,0,0-.647,1.528c.046,1.5,0,3,.022,4.5a1.107,1.107,0,0,1-.718,1.177H39.6q-1.856-1.846-3.709-3.694a.388.388,0,0,0-.434-.094,13.711,13.711,0,0,1-9.154-.791c-.687-.3-.847-.62-.655-1.368a.966.966,0,0,1,1.305-.3c.207.08.409.174.616.257a11.481,11.481,0,0,0,7.547.425,1.664,1.664,0,0,1,1.968.516c.586.678,1.259,1.282,1.975,2,0-1.29.022-2.458-.01-3.625a1.4,1.4,0,0,1,.559-1.233,10.17,10.17,0,0,0,2.478-2.84,11.633,11.633,0,0,0-.027-12.54,11.852,11.852,0,0,0-13.735-5.035,1.06,1.06,0,0,0-.784.823,13.488,13.488,0,0,1-2.894,5.209,13.946,13.946,0,0,1-4.079,3.2.513.513,0,0,0-.35.5c0,.25-.059.5-.075.752a11.979,11.979,0,0,0,1.041,5.767.992.992,0,0,1-.256,1.424c-.727.2-1.048.028-1.361-.667a13.665,13.665,0,0,1-1.214-6.406c.007-.13,0-.259,0-.427a16.722,16.722,0,0,1-2.9.583,13.6,13.6,0,0,1-5.624-.6.631.631,0,0,0-.761.2c-.835.867-1.7,1.7-2.545,2.562a1,1,0,0,1-1.186.353c-.471-.207-.532-.623-.53-1.08.009-1.487,0-2.972.009-4.459a.749.749,0,0,0-.248-.623,13.9,13.9,0,0,1-4.179-7.1c-.133-.547-.2-1.109-.3-1.663-.012-.069,0-.152-.093-.178V13.565c.184-.149.139-.372.17-.563A13.86,13.86,0,0,1,6.57,3.19a13.684,13.684,0,0,1,9-2.112,13.772,13.772,0,0,1,5.385,1.7c.578.322.678.623.481,1.385a1.141,1.141,0,0,1-1.494.108A11.912,11.912,0,0,0,11.833,3,11.909,11.909,0,0,0,3.3,9.2,11.934,11.934,0,0,0,2.672,19.65a11.866,11.866,0,0,0,3.382,4.74A1.485,1.485,0,0,1,6.6,25.638c-.026.972-.008,1.946-.008,2.919a11.322,11.322,0,0,0,1.633-1.545,1.314,1.314,0,0,1,1.66-.382,11.644,11.644,0,0,0,6.486.53,12.135,12.135,0,0,0,8.5-6.189,11.751,11.751,0,0,0,1.506-6.024,11.875,11.875,0,0,0-1.225-5.2A1.087,1.087,0,0,1,25.357,8.3Z" transform="translate(0.01 -1.001)" fill="#194e78"/>
    <path id="Path_58" data-name="Path 58" d="M180.907,169.249a.992.992,0,0,0,.256-1.424,11.966,11.966,0,0,1-1.041-5.767c.016-.252.078-.5.075-.752a.513.513,0,0,1,.35-.5,13.927,13.927,0,0,0,4.079-3.2,13.5,13.5,0,0,0,2.894-5.208,1.059,1.059,0,0,1,.783-.823,11.852,11.852,0,0,1,13.735,5.035,11.635,11.635,0,0,1,.027,12.54,10.191,10.191,0,0,1-2.478,2.84,1.4,1.4,0,0,0-.559,1.233c.031,1.167.01,2.335.01,3.625-.716-.719-1.389-1.322-1.975-2a1.664,1.664,0,0,0-1.968-.516,11.48,11.48,0,0,1-7.547-.425c-.207-.082-.409-.177-.616-.257a.967.967,0,0,0-1.305.3,9.28,9.28,0,0,1-1.869-1.294c.273-.573.236-.947-.126-1.288a.954.954,0,0,0-1.255-.063A10.562,10.562,0,0,1,180.907,169.249Zm11.078-2.542a2.393,2.393,0,0,1,2.232,1.742.841.841,0,0,0,1.09.577.9.9,0,0,0,.566-1.183,4.061,4.061,0,0,0-7.749-.146c-.218.632-.056,1.1.449,1.3s.953-.045,1.2-.659c.034-.083.059-.168.094-.249A2.344,2.344,0,0,1,191.984,166.708Zm-4.386-7.081a.878.878,0,0,0-.871.875.9.9,0,0,0,.873.883.918.918,0,0,0,.9-.909A.893.893,0,0,0,187.6,159.627Zm7.857.891a.9.9,0,0,0,.88.871.908.908,0,0,0,.877-.881.877.877,0,0,0-.909-.881A.86.86,0,0,0,195.456,160.518Z" transform="translate(-159.966 -134.233)" fill="#b1b1b1"/>
    <path id="Path_59" data-name="Path 59" d="M198.265,331.062a.954.954,0,0,1,1.255.063c.362.342.4.714.126,1.288-.661.436-1.2.349-1.539-.246A.926.926,0,0,1,198.265,331.062Z" transform="translate(-175.856 -293.993)" fill="#194e78"/>
    <path id="Path_60" data-name="Path 60" d="M39.44,22.354a1.088,1.088,0,0,0-.2,1.447,12.247,12.247,0,0,1-.281,11.225,12.132,12.132,0,0,1-8.5,6.189,11.624,11.624,0,0,1-6.486-.53,1.312,1.312,0,0,0-1.66.382,11.445,11.445,0,0,1-1.633,1.545c0-.974-.019-1.947.008-2.919a1.485,1.485,0,0,0-.547-1.248,12.278,12.278,0,0,1-2.755-15.186,11.907,11.907,0,0,1,8.535-6.2,11.9,11.9,0,0,1,8.108,1.274,1.142,1.142,0,0,0,1.494-.108,9.329,9.329,0,0,1,1.677,1.3,1.207,1.207,0,0,0-.224.7c.067.7.684.994,1.461.681A5.614,5.614,0,0,1,39.44,22.354ZM28.158,35.538c.183-.019.4-.039.625-.064a4.217,4.217,0,0,0,3.406-3,.885.885,0,0,0-.556-1.113.874.874,0,0,0-1.117.544c-.079.174-.127.367-.22.533a2.4,2.4,0,0,1-4.4-.324c-.255-.666-.687-.936-1.2-.754-.549.194-.712.666-.472,1.361A4.22,4.22,0,0,0,28.158,35.538Zm-3.629-8.852a.86.86,0,0,0-.879-.868.889.889,0,0,0-.881.879.911.911,0,0,0,.89.881A.89.89,0,0,0,24.529,26.686Zm7.276-.017a.871.871,0,1,0,.891-.851A.857.857,0,0,0,31.8,26.669Z" transform="translate(-14.072 -15.057)" fill="#8ba4ba"/>
    <path id="Path_61" data-name="Path 61" d="M206.305,40.583c-.777.313-1.395.02-1.461-.681a1.207,1.207,0,0,1,.224-.7c.651-.374,1.2-.269,1.463.285A.956.956,0,0,1,206.305,40.583Z" transform="translate(-181.945 -34.737)" fill="#194e78"/>
    <path id="Path_62" data-name="Path 62" d="M255.01,277.359a2.344,2.344,0,0,0-2.115,1.386c-.036.082-.06.167-.094.249-.25.615-.7.861-1.2.659s-.667-.672-.449-1.3a4.061,4.061,0,0,1,7.749.146.9.9,0,0,1-.566,1.183.841.841,0,0,1-1.09-.577A2.393,2.393,0,0,0,255.01,277.359Z" transform="translate(-222.992 -244.884)" fill="#194e78"/>
    <path id="Path_63" data-name="Path 63" d="M240.291,228.2a.891.891,0,0,1,.9.851.918.918,0,0,1-.9.909.9.9,0,0,1-.873-.883A.876.876,0,0,1,240.291,228.2Z" transform="translate(-212.659 -202.805)" fill="#194e78"/>
    <path id="Path_64" data-name="Path 64" d="M317.509,229.1a.86.86,0,0,1,.848-.89.877.877,0,0,1,.909.881.908.908,0,0,1-.877.881A.9.9,0,0,1,317.509,229.1Z" transform="translate(-282.02 -202.813)" fill="#194e78"/>
    <path id="Path_65" data-name="Path 65" d="M93.934,150.593A4.221,4.221,0,0,1,90,147.774c-.24-.694-.076-1.167.472-1.361.51-.181.943.088,1.2.754a2.4,2.4,0,0,0,4.4.324c.093-.168.141-.359.22-.533a.873.873,0,0,1,1.117-.544.885.885,0,0,1,.556,1.113,4.217,4.217,0,0,1-3.406,3C94.338,150.554,94.117,150.575,93.934,150.593Z" transform="translate(-79.848 -130.111)" fill="#194e78"/>
    <path id="Path_66" data-name="Path 66" d="M79.559,98.148a.891.891,0,0,1-.87.891.911.911,0,0,1-.89-.881.889.889,0,0,1,.881-.879A.861.861,0,0,1,79.559,98.148Z" transform="translate(-69.103 -86.519)" fill="#194e78"/>
    <path id="Path_67" data-name="Path 67" d="M158.639,98.139a.871.871,0,0,1,1.743.04.871.871,0,1,1-1.743-.04Z" transform="translate(-140.906 -86.526)" fill="#194e78"/>
  </g>
</svg>
