<svg xmlns="http://www.w3.org/2000/svg" width="40" height="40.577" viewBox="0 0 40 40.577">
  <g id="agreement" transform="translate(0 0.002)">
    <path id="Path_137" data-name="Path 137" d="M2.65,40.575a8.82,8.82,0,0,1-1.388-.632A2.823,2.823,0,0,1,.018,37.706C0,37.522,0,37.337,0,37.152Q0,20.292.007,3.433A4.493,4.493,0,0,1,.163,2.145,3.045,3.045,0,0,1,3.128,0C5.465-.006,7.8,0,10.14,0Q18.719,0,27.3,0a3.079,3.079,0,0,1,3.121,2.407,4.68,4.68,0,0,1,.088.982c.012.87,0,1.739.071,2.632.044-.079.1-.156.132-.238.338-.774.684-1.544,1-2.324a1.333,1.333,0,0,1,1.216-.918.416.416,0,0,0,.275-.206c.15-.292.261-.6.4-.9a2.426,2.426,0,0,1,4.46,1.908c-.141.367-.306.725-.458,1.084.6.4.6.4.642.972.412.177.836.356,1.257.542a.643.643,0,0,1,.4.982q-2.361,5.507-4.733,11.011a.627.627,0,0,1-.847.427c-.347-.142-.458-.507-.273-.939q2.177-5.071,4.359-10.139c.051-.119.1-.239.161-.395l-.842-.365c-.076.161-.145.3-.205.436q-5.7,13.2-11.409,26.4a2.417,2.417,0,0,1-.537.762c-1.114,1.071-2.252,2.116-3.37,3.182a1.393,1.393,0,0,1-2.44-1.047c.008-1.546-.011-3.09.008-4.636a2.543,2.543,0,0,1,.2-.95q4.57-10.629,9.158-21.251a1.685,1.685,0,0,0,.133-.645c.011-1.809.006-3.619.005-5.428a1.893,1.893,0,0,0-2.1-2.11q-6.8-.006-13.59,0c-3.394,0-6.788-.011-10.183.013a2.945,2.945,0,0,0-1.283.293,1.7,1.7,0,0,0-.887,1.617c0,1.122,0,2.245,0,3.368q0,15.374,0,30.747a1.856,1.856,0,0,0,.969,1.814,2.389,2.389,0,0,0,1.061.246q12.006.021,24.011.006a1.865,1.865,0,0,0,2.009-2.04q0-4.081,0-8.163a1.959,1.959,0,0,1,.013-.395.58.58,0,0,1,.61-.511.561.561,0,0,1,.583.491,2.608,2.608,0,0,1,.026.473c0,2.536-.052,5.073.018,7.607.053,1.9-.723,3.32-2.676,3.775ZM25.1,32.616c2.1-4.855,4.177-9.674,6.269-14.517l-3.9-1.685c-2.1,4.853-4.177,9.673-6.267,14.519Zm6.758-15.651L36.82,5.479l-3.9-1.685L27.957,15.278ZM21.043,36.518l.115.069,3.161-2.964L21.043,32.21ZM36.472,3.98a13.972,13.972,0,0,0,.5-1.315,1.157,1.157,0,0,0-.682-1.329,1.138,1.138,0,0,0-1.411.377,12.738,12.738,0,0,0-.636,1.311Z" transform="translate(0 0)" fill="#fff"/>
    <path id="Path_138" data-name="Path 138" d="M86.617,35.361V33.556H74.206v1.805h6.6a2.128,2.128,0,0,1,.395.013.573.573,0,0,1,.509.61.559.559,0,0,1-.492.581,2.471,2.471,0,0,1-.434.024q-3.228,0-6.457,0c-1.013,0-1.389-.377-1.39-1.381,0-.581-.006-1.162,0-1.743A1.086,1.086,0,0,1,74.1,32.29q6.3-.01,12.6,0a1.074,1.074,0,0,1,1.157,1.169q.014.989,0,1.981a1.056,1.056,0,0,1-1.134,1.146c-.871.018-1.743.012-2.614,0-.456-.005-.715-.245-.71-.62s.268-.6.725-.6C84.938,35.358,85.755,35.361,86.617,35.361Z" transform="translate(-65.216 -28.868)" fill="#fff"/>
    <path id="Path_139" data-name="Path 139" d="M57.241,98.3H47.932a3.527,3.527,0,0,1-.4-.008.6.6,0,0,1-.557-.61.578.578,0,0,1,.53-.592,2.891,2.891,0,0,1,.395-.015q9.349,0,18.7,0c.633,0,.926.19.936.6s-.294.625-.95.625Z" transform="translate(-42.004 -86.797)" fill="#fff"/>
    <path id="Path_140" data-name="Path 140" d="M57.3,133.754h9.269a3.5,3.5,0,0,1,.435.013.578.578,0,0,1,.536.588.6.6,0,0,1-.552.615,2.631,2.631,0,0,1-.317.006H47.86a2.631,2.631,0,0,1-.317-.006.6.6,0,0,1-.555-.612.576.576,0,0,1,.533-.59,3.5,3.5,0,0,1,.435-.013Z" transform="translate(-42.012 -119.594)" fill="#fff"/>
    <path id="Path_141" data-name="Path 141" d="M55.1,171.6H47.933a2.13,2.13,0,0,1-.395-.013.575.575,0,0,1-.509-.61.557.557,0,0,1,.491-.581,2.225,2.225,0,0,1,.394-.023H62.244c.053,0,.106,0,.159,0,.475.015.761.253.754.626s-.291.6-.774.6Q58.739,171.6,55.1,171.6Z" transform="translate(-42.05 -152.332)" fill="#fff"/>
    <path id="Path_142" data-name="Path 142" d="M44.872,303.28a3.3,3.3,0,0,1,2.05.72c.249.2.491.4.744.59a1.961,1.961,0,0,0,3.084-.535c.051-.077.093-.16.147-.235a.607.607,0,0,1,.858-.215.594.594,0,0,1,.2.832,3.126,3.126,0,0,1-4.5,1.459,7.718,7.718,0,0,1-1.187-.849,2.108,2.108,0,0,0-3.4.83c-.18.4-.472.543-.814.408a.624.624,0,0,1-.33-.852A3.281,3.281,0,0,1,44.872,303.28Z" transform="translate(-37.26 -271.173)" fill="#fff"/>
    <path id="Path_143" data-name="Path 143" d="M51.38,208.266c-1.255,0-2.509,0-3.764,0-.535,0-.878-.439-.635-.846a.825.825,0,0,1,.589-.36c2.535-.024,5.07-.019,7.606-.013a.6.6,0,0,1,.664.625.618.618,0,0,1-.7.594C53.889,208.268,52.634,208.266,51.38,208.266Z" transform="translate(-41.936 -185.122)" fill="#fff"/>
  </g>
</svg>
