<svg xmlns="http://www.w3.org/2000/svg" width="19.327" height="20.064" viewBox="0 0 19.327 20.064">
  <g id="calendar" transform="translate(-0.002 -4.804)">
    <path id="Path_109" data-name="Path 109" d="M16.994,24.868H2.335a.2.2,0,0,0-.049-.028A2.651,2.651,0,0,1,0,22.053Q0,15.577,0,9.1a3.283,3.283,0,0,1,.041-.6A2.646,2.646,0,0,1,2.7,6.292c.331,0,.663,0,1.016,0,0-.24,0-.46,0-.68A.755.755,0,0,1,4.466,4.8a.746.746,0,0,1,.737.814c0,.22,0,.439,0,.658h8.925V6.069c0-.17,0-.34,0-.509a.741.741,0,1,1,1.482-.027c.013.245,0,.493,0,.759.381,0,.738,0,1.1,0a2.457,2.457,0,0,1,1.252.337,2.631,2.631,0,0,1,1.367,2.414q0,4.026,0,8.053c0,1.679,0,3.357,0,5.035a2.663,2.663,0,0,1-1.958,2.642C17.245,24.807,17.119,24.837,16.994,24.868ZM3.716,7.787c-.424,0-.824-.03-1.218.007A1.167,1.167,0,0,0,1.487,9.056q0,6.514,0,13.029a1.187,1.187,0,0,0,1.307,1.3H10.77q2.92,0,5.839,0a1.192,1.192,0,0,0,.952-.419,1.268,1.268,0,0,0,.283-.873q0-6.514,0-13.029a1.95,1.95,0,0,0-.013-.234,1.108,1.108,0,0,0-.936-1.017,10.394,10.394,0,0,0-1.279-.01c0,.233,0,.46,0,.687a.744.744,0,1,1-1.485-.013c0-.226,0-.453,0-.681H5.2c0,.234,0,.455,0,.676a.744.744,0,1,1-1.486,0C3.713,8.25,3.716,8.029,3.716,7.787Z" transform="translate(0 0)" fill="#d5d5d5"/>
    <path id="Path_110" data-name="Path 110" d="M86.112,276.37a.93.93,0,1,1,.926-.925A.94.94,0,0,1,86.112,276.37Z" transform="translate(-80.717 -255.588)" fill="#d5d5d5"/>
    <path id="Path_111" data-name="Path 111" d="M86.1,205.466a.928.928,0,1,1,0-1.856.928.928,0,1,1,0,1.856Z" transform="translate(-80.709 -188.4)" fill="#d5d5d5"/>
    <path id="Path_112" data-name="Path 112" d="M242.391,132.66a.926.926,0,1,1-.932.909A.915.915,0,0,1,242.391,132.66Z" transform="translate(-228.818 -121.163)" fill="#d5d5d5"/>
    <path id="Path_113" data-name="Path 113" d="M165.233,275.46a.927.927,0,1,1-1.854-.019.927.927,0,1,1,1.854.019Z" transform="translate(-154.826 -255.598)" fill="#d5d5d5"/>
    <path id="Path_114" data-name="Path 114" d="M243.319,204.5a.925.925,0,1,1-.922-.921A.925.925,0,0,1,243.319,204.5Z" transform="translate(-228.829 -188.371)" fill="#d5d5d5"/>
    <path id="Path_115" data-name="Path 115" d="M86.1,132.67a.926.926,0,1,1-.933.932A.927.927,0,0,1,86.1,132.67Z" transform="translate(-80.709 -121.173)" fill="#d5d5d5"/>
    <path id="Path_116" data-name="Path 116" d="M243.31,275.465a.925.925,0,1,1-.929-.935A.927.927,0,0,1,243.31,275.465Z" transform="translate(-228.819 -255.607)" fill="#d5d5d5"/>
    <path id="Path_117" data-name="Path 117" d="M165.234,204.518a.927.927,0,1,1-1.854,0,.927.927,0,1,1,1.854,0Z" transform="translate(-154.826 -188.379)" fill="#d5d5d5"/>
    <path id="Path_118" data-name="Path 118" d="M164.288,132.66a.925.925,0,1,1-.918.922A.923.923,0,0,1,164.288,132.66Z" transform="translate(-154.817 -121.163)" fill="#d5d5d5"/>
  </g>
</svg>
