<svg xmlns="http://www.w3.org/2000/svg" width="42.959" height="43" viewBox="0 0 42.959 43">
  <path id="Path_70" data-name="Path 70" d="M30.814,43.78a6.947,6.947,0,0,0-1.49-.29A25.3,25.3,0,0,1,21.3,40.331a49.841,49.841,0,0,1-18.239-18.5,23.451,23.451,0,0,1-2.78-7.5,2.371,2.371,0,0,0-.2-.949V10.611A5.318,5.318,0,0,0,.4,9.3,8.7,8.7,0,0,1,2.614,5.323C3.712,4.205,4.814,3.09,5.936,2a4.182,4.182,0,0,1,6.379.577q2.249,3.134,4.5,6.263a4.15,4.15,0,0,1-.4,5.571c-1.054,1.083-2.118,2.157-3.21,3.2a1.188,1.188,0,0,0-.309,1.461A19.056,19.056,0,0,0,16.475,24.8a22.9,22.9,0,0,0,8.437,5.988.955.955,0,0,0,1.173-.231c1.112-1.123,2.225-2.247,3.354-3.353a4.137,4.137,0,0,1,4.831-.809,3.345,3.345,0,0,1,.7.461c1.991,1.7,3.968,3.409,5.984,5.075a5.076,5.076,0,0,1,1.817,2.241,3.941,3.941,0,0,1-.679,4.059,28.206,28.206,0,0,1-3.621,3.552A9.289,9.289,0,0,1,33.624,43.7c-.075.009-.174-.035-.206.083ZM32.2,42.1a10.835,10.835,0,0,0,2.409-.292A8.726,8.726,0,0,0,39,39.015c.187-.2.205-.288-.028-.458-.861-.623-1.707-1.267-2.558-1.9-2.564-1.92-5.132-3.834-7.685-5.767-.294-.222-.451-.2-.677.061a11.1,11.1,0,0,1-.887.893,2.444,2.444,0,0,1-2.787.535A24.433,24.433,0,0,1,14.4,24.93a18.014,18.014,0,0,1-3.211-5.7,2.45,2.45,0,0,1,.63-2.589c.331-.341.664-.682,1.011-1.008a.287.287,0,0,0,.049-.451Q9.359,10.016,5.854,4.841c-.128-.19-.205-.2-.367-.034-.553.573-1.128,1.128-1.684,1.7A6.828,6.828,0,0,0,2.248,9.018a9.885,9.885,0,0,0-.277,5.133,23.786,23.786,0,0,0,3.1,7.829,46.457,46.457,0,0,0,8.127,10.1A41.3,41.3,0,0,0,25.5,40.547,17.6,17.6,0,0,0,32.2,42.1Zm9.125-6.469a3.788,3.788,0,0,0-.055-.623,3.128,3.128,0,0,0-1.287-1.69c-2.017-1.68-4.009-3.391-6.013-5.087a2.426,2.426,0,0,0-3.276.1c-.285.268-.543.567-.837.824-.25.219-.223.342.04.532.928.67,1.84,1.362,2.757,2.048q3.737,2.8,7.47,5.609c.269.2.438.149.622-.091A2.362,2.362,0,0,0,41.322,35.628ZM8.953,2.459a2.746,2.746,0,0,0-1.732.627.4.4,0,0,0-.093.657C8.1,5.131,9.038,6.536,9.989,7.934q2.03,2.983,4.056,5.967c.16.239.265.273.463.051.261-.292.557-.552.825-.837a2.425,2.425,0,0,0,.277-3.051q-2.374-3.355-4.8-6.668A2.389,2.389,0,0,0,8.953,2.459Z" transform="translate(-0.08 -0.781)" fill="#7a0001"/>
</svg>
