<svg xmlns="http://www.w3.org/2000/svg" xmlns:xlink="http://www.w3.org/1999/xlink" width="176" height="105" viewBox="0 0 176 105">
  <defs>
    <filter id="Rectangle_13" x="0" y="0" width="176" height="105" filterUnits="userSpaceOnUse">
      <feOffset dx="3" dy="4" input="SourceAlpha"/>
      <feGaussianBlur stdDeviation="3" result="blur"/>
      <feFlood flood-opacity="0.161"/>
      <feComposite operator="in" in2="blur"/>
      <feComposite in="SourceGraphic"/>
    </filter>
  </defs>
  <g id="Emergency_Box" data-name="Emergency Box" transform="translate(-217 -510)">
    <g transform="matrix(1, 0, 0, 1, 217, 510)" filter="url(#Rectangle_13)">
      <g id="Rectangle_13-2" data-name="Rectangle 13" transform="translate(6 5)" fill="#fff" stroke="#d5d5d5" stroke-width="1">
        <rect width="158" height="87" rx="7" stroke="none"/>
        <rect x="0.5" y="0.5" width="157" height="86" rx="6.5" fill="none"/>
      </g>
    </g>
    <g id="emergency" transform="translate(-5 -3.278)">
      <g id="telephone" transform="translate(286 528.278)">
        <path id="Path_70" data-name="Path 70" d="M30.814,43.78a6.947,6.947,0,0,0-1.49-.29A25.3,25.3,0,0,1,21.3,40.331a49.841,49.841,0,0,1-18.239-18.5,23.451,23.451,0,0,1-2.78-7.5,2.371,2.371,0,0,0-.2-.949V10.611A5.318,5.318,0,0,0,.4,9.3,8.7,8.7,0,0,1,2.614,5.323C3.712,4.205,4.814,3.09,5.936,2a4.182,4.182,0,0,1,6.379.577q2.249,3.134,4.5,6.263a4.15,4.15,0,0,1-.4,5.571c-1.054,1.083-2.118,2.157-3.21,3.2a1.188,1.188,0,0,0-.309,1.461A19.056,19.056,0,0,0,16.475,24.8a22.9,22.9,0,0,0,8.437,5.988.955.955,0,0,0,1.173-.231c1.112-1.123,2.225-2.247,3.354-3.353a4.137,4.137,0,0,1,4.831-.809,3.345,3.345,0,0,1,.7.461c1.991,1.7,3.968,3.409,5.984,5.075a5.076,5.076,0,0,1,1.817,2.241,3.941,3.941,0,0,1-.679,4.059,28.206,28.206,0,0,1-3.621,3.552A9.289,9.289,0,0,1,33.624,43.7c-.075.009-.174-.035-.206.083ZM32.2,42.1a10.835,10.835,0,0,0,2.409-.292A8.726,8.726,0,0,0,39,39.015c.187-.2.205-.288-.028-.458-.861-.623-1.707-1.267-2.558-1.9-2.564-1.92-5.132-3.834-7.685-5.767-.294-.222-.451-.2-.677.061a11.1,11.1,0,0,1-.887.893,2.444,2.444,0,0,1-2.787.535A24.433,24.433,0,0,1,14.4,24.93a18.014,18.014,0,0,1-3.211-5.7,2.45,2.45,0,0,1,.63-2.589c.331-.341.664-.682,1.011-1.008a.287.287,0,0,0,.049-.451Q9.359,10.016,5.854,4.841c-.128-.19-.205-.2-.367-.034-.553.573-1.128,1.128-1.684,1.7A6.828,6.828,0,0,0,2.248,9.018a9.885,9.885,0,0,0-.277,5.133,23.786,23.786,0,0,0,3.1,7.829,46.457,46.457,0,0,0,8.127,10.1A41.3,41.3,0,0,0,25.5,40.547,17.6,17.6,0,0,0,32.2,42.1Zm9.125-6.469a3.788,3.788,0,0,0-.055-.623,3.128,3.128,0,0,0-1.287-1.69c-2.017-1.68-4.009-3.391-6.013-5.087a2.426,2.426,0,0,0-3.276.1c-.285.268-.543.567-.837.824-.25.219-.223.342.04.532.928.67,1.84,1.362,2.757,2.048q3.737,2.8,7.47,5.609c.269.2.438.149.622-.091A2.362,2.362,0,0,0,41.322,35.628ZM8.953,2.459a2.746,2.746,0,0,0-1.732.627.4.4,0,0,0-.093.657C8.1,5.131,9.038,6.536,9.989,7.934q2.03,2.983,4.056,5.967c.16.239.265.273.463.051.261-.292.557-.552.825-.837a2.425,2.425,0,0,0,.277-3.051q-2.374-3.355-4.8-6.668A2.389,2.389,0,0,0,8.953,2.459Z" transform="translate(-0.08 -0.781)" fill="#7a0001"/>
        <path id="Path_71" data-name="Path 71" d="M79.821,198.867a.874.874,0,0,0-.4-.8,45.659,45.659,0,0,1-7.533-8.162.772.772,0,1,0-1.234.894,46.6,46.6,0,0,0,6.359,7.181c.508.462,1.025.912,1.546,1.361a.712.712,0,0,0,.85.107A.7.7,0,0,0,79.821,198.867Zm1.72,2.446a.757.757,0,0,0,.762-.745.781.781,0,0,0-.783-.773.762.762,0,0,0-.735.773A.74.74,0,0,0,81.542,201.312Z" transform="translate(-62.221 -167.458)" fill="#7a0001"/>
        <path id="Path_72" data-name="Path 72" d="M79.821,198.858a.7.7,0,0,1-.411.578.712.712,0,0,1-.85-.107c-.52-.448-1.038-.9-1.546-1.361a46.552,46.552,0,0,1-6.359-7.181.772.772,0,1,1,1.234-.894,45.658,45.658,0,0,0,7.533,8.162A.874.874,0,0,1,79.821,198.858Z" transform="translate(-62.308 -167.618)" fill="#7a0001"/>
        <path id="Path_73" data-name="Path 73" d="M172.7,292.185a.738.738,0,0,1-.754-.744.761.761,0,0,1,.735-.773.782.782,0,0,1,.783.773A.758.758,0,0,1,172.7,292.185Z" transform="translate(-152.591 -258.015)" fill="#7a0001"/>
      </g>
      <text id="Emergency_Complain" data-name="Emergency Complain" transform="translate(307 590.938)" fill="#7a0001" font-size="16" font-family="Roboto-Bold, Roboto" font-weight="700" letter-spacing="-0.05em"><tspan x="-69.618" y="0">Emergency Complain</tspan></text>
    </g>
  </g>
</svg>
