<svg xmlns="http://www.w3.org/2000/svg" xmlns:xlink="http://www.w3.org/1999/xlink" width="283" height="64" viewBox="0 0 283 64">
  <defs>
    <filter id="Rectangle_42" x="0" y="0" width="283" height="64" filterUnits="userSpaceOnUse">
      <feOffset dx="3" dy="4" input="SourceAlpha"/>
      <feGaussianBlur stdDeviation="3" result="blur"/>
      <feFlood flood-opacity="0.161"/>
      <feComposite operator="in" in2="blur"/>
      <feComposite in="SourceGraphic"/>
    </filter>
  </defs>
  <g id="Emergency_Complain" data-name="Emergency Complain" transform="translate(-69 -570)">
    <g transform="matrix(1, 0, 0, 1, 69, 570)" filter="url(#Rectangle_42)">
      <g id="Rectangle_42-2" data-name="Rectangle 42" transform="translate(6 5)" fill="#fff" stroke="#d5d5d5" stroke-width="1">
        <rect width="265" height="46" rx="5" stroke="none"/>
        <rect x="0.5" y="0.5" width="264" height="45" rx="4.5" fill="none"/>
      </g>
    </g>
    <g id="Group_15" data-name="Group 15" transform="translate(4 -0.416)">
      <g id="telephone" transform="translate(118 582.416)">
        <path id="Path_70" data-name="Path 70" d="M22.357,31.949a5.036,5.036,0,0,0-1.08-.21,18.335,18.335,0,0,1-5.814-2.29A36.127,36.127,0,0,1,2.243,16.037,17,17,0,0,1,.228,10.6,1.718,1.718,0,0,0,.08,9.915V7.906a3.854,3.854,0,0,0,.229-.951A6.3,6.3,0,0,1,1.917,4.073c.8-.81,1.594-1.619,2.408-2.411a3.031,3.031,0,0,1,4.624.418q1.63,2.272,3.264,4.54a3.008,3.008,0,0,1-.287,4.038c-.764.785-1.535,1.563-2.326,2.32a.861.861,0,0,0-.224,1.059,13.813,13.813,0,0,0,2.588,4.153,16.6,16.6,0,0,0,6.116,4.341.692.692,0,0,0,.85-.168c.806-.814,1.613-1.629,2.431-2.431a3,3,0,0,1,3.5-.587,2.424,2.424,0,0,1,.5.334c1.443,1.23,2.876,2.471,4.337,3.678a3.679,3.679,0,0,1,1.317,1.624,2.857,2.857,0,0,1-.492,2.942A20.445,20.445,0,0,1,27.9,30.5a6.733,6.733,0,0,1-3.51,1.389c-.054.007-.126-.025-.15.06Zm1-1.22a7.854,7.854,0,0,0,1.747-.212,6.325,6.325,0,0,0,3.185-2.022c.136-.146.149-.209-.02-.332-.624-.451-1.237-.918-1.854-1.38C24.558,25.391,22.7,24,20.846,22.6c-.213-.161-.327-.146-.491.044a8.043,8.043,0,0,1-.643.648,1.772,1.772,0,0,1-2.02.388,17.71,17.71,0,0,1-7.231-5.4A13.057,13.057,0,0,1,8.135,14.15a1.776,1.776,0,0,1,.456-1.877c.24-.247.482-.495.733-.73a.208.208,0,0,0,.036-.327Q6.806,7.475,4.265,3.724C4.173,3.587,4.116,3.579,4,3.7c-.4.416-.818.818-1.221,1.232A4.949,4.949,0,0,0,1.652,6.752a7.165,7.165,0,0,0-.2,3.721A17.242,17.242,0,0,0,3.7,16.147a33.674,33.674,0,0,0,5.891,7.324,29.939,29.939,0,0,0,8.92,6.133A12.757,12.757,0,0,0,23.36,30.729Zm6.614-4.689a2.746,2.746,0,0,0-.04-.451A2.267,2.267,0,0,0,29,24.363c-1.462-1.218-2.906-2.458-4.359-3.687a1.759,1.759,0,0,0-2.374.07c-.207.194-.394.411-.607.6-.181.159-.162.248.029.386.673.486,1.334.988,2,1.485q2.709,2.03,5.414,4.066c.2.147.317.108.451-.066A1.712,1.712,0,0,0,29.974,26.04ZM6.511,2a1.99,1.99,0,0,0-1.255.455.293.293,0,0,0-.068.476c.7,1.006,1.385,2.025,2.074,3.038q1.472,2.162,2.94,4.325c.116.173.192.2.336.037.19-.211.4-.4.6-.607a1.758,1.758,0,0,0,.2-2.212Q9.617,5.077,7.856,2.676A1.732,1.732,0,0,0,6.511,2Z" transform="translate(-0.08 -0.781)" fill="#7a0001"/>
        <path id="Path_71" data-name="Path 71" d="M77.237,196.281a.633.633,0,0,0-.29-.581,33.1,33.1,0,0,1-5.46-5.916.56.56,0,1,0-.894.648,33.779,33.779,0,0,0,4.61,5.2c.368.335.743.661,1.12.987a.516.516,0,0,0,.616.078A.508.508,0,0,0,77.237,196.281Zm1.247,1.773a.549.549,0,0,0,.552-.54.566.566,0,0,0-.567-.561.552.552,0,0,0-.532.561A.536.536,0,0,0,78.484,198.054Z" transform="translate(-64.48 -173.515)" fill="#7a0001"/>
        <path id="Path_72" data-name="Path 72" d="M77.237,196.272a.508.508,0,0,1-.3.419.516.516,0,0,1-.616-.078c-.377-.325-.752-.652-1.12-.987a33.741,33.741,0,0,1-4.61-5.2.56.56,0,1,1,.894-.648,33.1,33.1,0,0,0,5.46,5.916A.634.634,0,0,1,77.237,196.272Z" transform="translate(-64.542 -173.628)" fill="#7a0001"/>
        <path id="Path_73" data-name="Path 73" d="M172.5,291.767a.535.535,0,0,1-.547-.539.552.552,0,0,1,.532-.561.567.567,0,0,1,.567.561A.549.549,0,0,1,172.5,291.767Z" transform="translate(-157.917 -267)" fill="#7a0001"/>
      </g>
      <text id="Emergency_Complain-2" data-name="Emergency Complain" transform="translate(223 602.5)" fill="#7a0001" font-size="14" font-family="Roboto-Bold, Roboto" font-weight="700"><tspan x="-66.866" y="0">Emergency Complain</tspan></text>
    </g>
  </g>
</svg>
