<svg xmlns="http://www.w3.org/2000/svg" width="43.59" height="43.595" viewBox="0 0 43.59 43.595">
  <g id="server" transform="translate(0)">
    <path id="Path_74" data-name="Path 74" d="M22.481,43.508q-11.038,0-22.077.007c-.3,0-.4-.036-.4-.379Q.016,21.718,0,.3C0-.044.1-.08.4-.08q11.039.013,22.078.007,0,8.828-.011,17.658a.714.714,0,0,0,.451.745.657.657,0,0,0,.629.058,4.363,4.363,0,0,1,.8-.264.67.67,0,0,0,.5-.446c.347-.8.723-1.6,1.075-2.4a.4.4,0,0,1,.431-.3q1.169.031,2.34,0a.393.393,0,0,1,.43.3c.219.521.507,1.017.685,1.551a1.922,1.922,0,0,0,1.659,1.54.222.222,0,0,1,.079.029.494.494,0,0,0,.548-.047c.756-.444,1.529-.86,2.284-1.306a.449.449,0,0,1,.594.019c.593.459,1.2.906,1.819,1.327a.489.489,0,0,1,.222.6c-.123.538-.173,1.1-.348,1.617a1.955,1.955,0,0,0,.443,2.189.829.829,0,0,0,.543.324c.888.087,1.774.207,2.662.291a.371.371,0,0,1,.379.3c.235.755.484,1.507.737,2.256a.382.382,0,0,1-.128.479c-.441.378-.825.832-1.3,1.162a1.962,1.962,0,0,0-.926,2.114.119.119,0,0,1,0,.043.406.406,0,0,0,.164.4c.731.628,1.407,1.317,2.159,1.922A5.89,5.89,0,0,1,43.4,35.138c.068.236.037.5.192.709v1.7c-.229.325-.106.752-.3,1.111-1.139-.834-2.265-1.643-3.371-2.478-.25-.189-.353-.145-.513.091a18.258,18.258,0,0,1-1.134,1.539c-.284.334-.23.49.114.731,1.131.794,2.235,1.626,3.368,2.456-.075.06-.116.1-.163.129-.284.186-.559.387-.855.555a5.686,5.686,0,0,1-5.565.229,18.012,18.012,0,0,1-2.3-1.349,1.763,1.763,0,0,0-2.056-.218.912.912,0,0,1-.284.084.27.27,0,0,0-.218.175c-.415.972-.918,1.906-1.273,2.9H26.056c-.422-.939-.846-1.878-1.265-2.818a.407.407,0,0,0-.287-.271c-.367-.1-.722-.241-1.086-.356a.833.833,0,0,0-.937.683Q22.478,42.128,22.481,43.508Zm-1.375-2.3a2.072,2.072,0,0,0-.29.163c-.327.272-.6.2-.935-.037-.567-.4-1.132-.8-1.671-1.243a.419.419,0,0,1-.181-.5c.141-.548.192-1.121.359-1.659a1.987,1.987,0,0,0-.44-2.233.943.943,0,0,0-.585-.335c-.86-.089-1.717-.2-2.579-.274a.463.463,0,0,1-.46-.342,20.619,20.619,0,0,1-.717-2.22.433.433,0,0,1,.162-.5c.667-.594,1.322-1.2,1.982-1.8a.5.5,0,0,0,.231-.423c-.021-.367-.015-.737,0-1.1a.433.433,0,0,0-.164-.367c-.759-.683-1.5-1.388-2.274-2.051a6.025,6.025,0,0,1-1.825-6.525c.1.069.189.132.278.2,1.041.762,2.085,1.518,3.117,2.291.2.151.3.166.456-.06.4-.584.815-1.161,1.255-1.715.2-.255.123-.364-.1-.522-.808-.575-1.605-1.167-2.405-1.752-.348-.255-.695-.513-1.071-.79,2.614-1.943,5.215-2.063,7.87-.137,0-1.128-.016-2.207.009-3.284.009-.35-.075-.442-.434-.44-3.844.014-7.688.009-11.532.009-.973,0-.99,0-.971.983.007.331-.1.389-.4.387-1.971-.014-3.943,0-5.915-.017-.391,0-.514.062-.514.491q.023,13.149,0,26.3c0,.356.059.468.45.467q9.235-.023,18.468-.011C21.139,42.146,21.139,42.146,21.105,41.209Zm21.083-5.044c-.037-.256-.045-.4-.077-.533a4.5,4.5,0,0,0-6.486-2.969.7.7,0,0,1-.855-.057q-6.44-4.474-12.9-8.918a.521.521,0,0,1-.261-.68,4.474,4.474,0,0,0-2.358-5.316A4.4,4.4,0,0,0,15.8,17.5c.077.181.215.235.324.315q1.284.945,2.572,1.884c.151.11.246.179.089.388Q17.3,22.084,15.844,24.1c-.16.222-.263.165-.433.037-.623-.468-1.255-.925-1.884-1.385-.211-.155-.424-.308-.659-.479a1.116,1.116,0,0,0,.033.52,4.5,4.5,0,0,0,6.5,2.929.589.589,0,0,1,.712.043q6.51,4.521,13.038,9.016a.476.476,0,0,1,.241.612,4.478,4.478,0,0,0,3.494,5.681,4.166,4.166,0,0,0,2.38-.206c-1.027-.752-1.981-1.46-2.949-2.15-.215-.153-.221-.247-.066-.456q1.436-1.926,2.837-3.877c.185-.257.3-.286.554-.088C40.455,34.921,41.286,35.507,42.189,36.164ZM17.054,27.613a.631.631,0,0,1,.316.668,7.8,7.8,0,0,0,0,1.952.6.6,0,0,1-.244.582c-.618.543-1.21,1.115-1.828,1.658a.4.4,0,0,0-.146.543,1.694,1.694,0,0,1,.146.442c.048.278.209.343.472.365.79.067,1.578.175,2.367.252a.718.718,0,0,1,.634.4,8.024,8.024,0,0,0,1.154,1.574.484.484,0,0,1,.126.494c-.186.829-.342,1.664-.522,2.494-.047.216-.041.38.176.5a2.346,2.346,0,0,1,.445.326c.179.167.327.134.524.018.732-.431,1.479-.836,2.214-1.263a.485.485,0,0,1,.507-.044,8.833,8.833,0,0,0,1.972.648.535.535,0,0,1,.422.353c.267.61.591,1.2.8,1.825a.95.95,0,0,0,1.17.758.52.52,0,0,0,.5-.335c.324-.754.673-1.5,1.014-2.244.057-.124.077-.284.249-.318a18.066,18.066,0,0,0,2.3-.726c.284-.1.288-.148.223-.376a2.914,2.914,0,0,1-.188-1.421c.246-1.017-.272-1.518-1.064-1.942a.613.613,0,0,0-.651-.043,5.92,5.92,0,0,1-4.344.368,6.051,6.051,0,0,1-4.364-6.367.57.57,0,0,0-.293-.624c-.433-.268-.846-.571-1.262-.865a.4.4,0,0,0-.43-.066A5.816,5.816,0,0,1,17.054,27.613Zm20.859,3.18a.461.461,0,0,1-.217-.509,12.082,12.082,0,0,0,0-2.039.584.584,0,0,1,.218-.55c.624-.556,1.23-1.132,1.858-1.685a.4.4,0,0,0,.14-.514,4.012,4.012,0,0,1-.158-.484.393.393,0,0,0-.4-.335c-.86-.077-1.717-.2-2.576-.286a.5.5,0,0,1-.427-.28,8.99,8.99,0,0,0-1.2-1.647.546.546,0,0,1-.143-.537c.151-.706.29-1.413.439-2.12s.147-.7-.445-1.112a.568.568,0,0,1-.07-.049.4.4,0,0,0-.561-.029c-.73.433-1.48.834-2.211,1.264a.485.485,0,0,1-.507.031,8.848,8.848,0,0,0-1.971-.645.49.49,0,0,1-.394-.324c-.272-.622-.606-1.221-.824-1.861a.943.943,0,0,0-1.184-.74c-.232.035-.371.073-.471.306-.317.741-.67,1.466-.989,2.206a.625.625,0,0,1-.507.431,8.871,8.871,0,0,0-1.815.582.564.564,0,0,1-.622.027,10.256,10.256,0,0,1,.3,1.739c.033.431-.269.916.01,1.264a6.287,6.287,0,0,0,1.092.8.526.526,0,0,0,.648.037,5.882,5.882,0,0,1,4.095-.428,6.045,6.045,0,0,1,4.61,6.388.679.679,0,0,0,.359.717c.375.227.729.49,1.084.748a.427.427,0,0,0,.467.055A5.773,5.773,0,0,1,37.913,30.793ZM14.607,12.184c2.056,0,4.11-.005,6.166.006.272,0,.356-.062.353-.346-.014-1.559-.019-3.118,0-4.677.005-.351-.077-.44-.435-.439-3.841.014-7.682.009-11.523.009-.983,0-1,0-.98.973.005.312-.065.4-.39.4-2.027-.017-4.054,0-6.081-.014-.27,0-.364.058-.354.345.022.666.026,1.333,0,2-.013.318.072.4.393.4,1.814-.017,3.628-.009,5.443-.009.977,0,.992,0,.973.978-.006.323.083.393.4.391C10.581,12.177,12.594,12.184,14.607,12.184ZM11.274,1.289c-3.147,0-6.294.009-9.441-.011-.406,0-.487.123-.469.491.029.608.025,1.219,0,1.828-.012.316.054.428.405.425C3.555,4,5.341,4.011,7.128,4.014c.337,0,.777-.106.983.063s.069.638.062.972c-.005.256.055.333.325.332q6.145-.014,12.291,0c.3,0,.336-.112.333-.364-.011-1.106-.017-2.212,0-3.317.006-.324-.068-.421-.41-.42C17.568,1.3,14.421,1.289,11.274,1.289ZM32.3,29.235A4.72,4.72,0,0,0,30.07,25.21a4.657,4.657,0,0,0-4.2-.421Zm-9.55.022a4.714,4.714,0,0,0,2.353,4.1,4.66,4.66,0,0,0,4.079.347ZM4.114,5.375H2.371c-1.023,0-1.011,0-1.008,1.045,0,.27.079.325.334.324,1.359-.013,2.719-.006,4.079-.006,1.087,0,1.078,0,1.05-1.087-.006-.229-.073-.283-.29-.279C5.728,5.382,4.921,5.375,4.114,5.375Zm.025,6.809H2.354c-1,0-.985,0-.989,1.021,0,.28.077.351.352.348,1.359-.014,2.719-.007,4.079-.007,1.056,0,1.047,0,1.031-1.064,0-.241-.07-.308-.308-.3C5.724,12.193,4.931,12.184,4.138,12.184Z" transform="translate(0 0.08)" fill="#194e78"/>
    <path id="Path_75" data-name="Path 75" d="M49.37,325.889v-5.235c0-.9,0-.874-.883-.9-.4-.014-.489.12-.487.5.014,3.617.009,7.235.009,10.852,0,.925,0,.908.947.924.347.006.424-.109.421-.435C49.362,329.691,49.37,327.791,49.37,325.889Zm2.723.022v-5.235c0-.92,0-.9-.9-.926-.387-.012-.467.112-.467.479.014,3.617.009,7.235.009,10.852,0,.951,0,.937.968.945.326,0,.4-.1.4-.413C52.087,329.712,52.093,327.812,52.093,325.911Zm2.724.02v-5.278c0-.9,0-.874-.883-.9-.4-.014-.489.119-.488.5.014,3.617.009,7.235.009,10.852,0,.925,0,.909.947.924.347.006.425-.108.422-.434C54.81,329.706,54.817,327.819,54.817,325.932Zm1.362,4.705c0,.369.01.738,0,1.106s.263.306.439.264c.309-.074.834.289.9-.249a17.218,17.218,0,0,0,.022-2.21c0-.115,0-.248-.161-.246-.38.005-.809-.13-1.123.061-.213.129-.053.529-.075.806C56.168,330.324,56.178,330.481,56.179,330.637Zm2.723-.005c0,.369.014.738,0,1.106-.015.324.211.325.392.27.322-.1.869.3.948-.246a16.746,16.746,0,0,0,.028-2.209c0-.213-.1-.251-.286-.262-1.078-.066-1.078-.07-1.078,1C58.9,330.4,58.9,330.518,58.9,330.632Z" transform="translate(-43.913 -292.515)" fill="#adb5bc"/>
    <path id="Path_76" data-name="Path 76" d="M180.245,222.249c-.9-.657-1.735-1.243-2.541-1.861-.259-.2-.37-.17-.554.088q-1.4,1.953-2.837,3.877c-.156.21-.149.3.066.456.967.69,1.922,1.4,2.949,2.15a4.166,4.166,0,0,1-2.38.206,4.478,4.478,0,0,1-3.494-5.681.477.477,0,0,0-.241-.612q-6.527-4.5-13.038-9.016a.587.587,0,0,0-.712-.043,4.5,4.5,0,0,1-6.5-2.929,1.1,1.1,0,0,1-.033-.52c.235.171.448.324.659.479.629.461,1.26.917,1.884,1.385.171.129.273.186.433-.037q1.454-2.018,2.941-4.011c.157-.209.061-.278-.089-.388q-1.29-.937-2.572-1.884c-.11-.081-.248-.135-.324-.315a4.4,4.4,0,0,1,3.452.186,4.473,4.473,0,0,1,2.358,5.316.52.52,0,0,0,.261.68q6.459,4.446,12.9,8.918a.7.7,0,0,0,.855.057,4.5,4.5,0,0,1,6.486,2.969C180.2,221.851,180.21,221.992,180.245,222.249Z" transform="translate(-138.057 -186.004)" fill="#8ba4ba"/>
    <path id="Path_77" data-name="Path 77" d="M18.757,63.924c.807,0,1.614.007,2.422-.005.217,0,.284.05.29.279.029,1.087.037,1.087-1.05,1.087-1.36,0-2.719-.007-4.079.006-.255,0-.333-.054-.334-.324,0-1.045-.014-1.045,1.008-1.045Z" transform="translate(-14.643 -58.469)" fill="#b1b1b1"/>
    <path id="Path_78" data-name="Path 78" d="M18.794,143.893c.793,0,1.586.009,2.379-.005.238,0,.3.063.308.3.016,1.064.025,1.064-1.031,1.064-1.36,0-2.719-.008-4.079.007-.275,0-.353-.068-.352-.348,0-1.02-.007-1.021.989-1.021Z" transform="translate(-14.656 -131.629)" fill="#b1b1b1"/>
  </g>
</svg>
