<svg xmlns="http://www.w3.org/2000/svg" width="40.114" height="41.689" viewBox="0 0 40.114 41.689">
  <g id="_x31_88_x2C__settings_x2C__App_x2C__installation_x2C__maintenance_x2C__service" transform="translate(-35.535 -25.448)">
    <g id="Group_2820" data-name="Group 2820" transform="translate(36.09 26.003)">
      <path id="Path_11543" data-name="Path 11543" d="M60.9,47.937l-2.878,2.878L68.78,61.571l2.878-2.878Zm-3.562,2.65,3.334-3.334a.323.323,0,0,1,.456,0L72.114,58.237l2.828-2.828L60.977,41.444a.332.332,0,0,1-.089-.294A12.539,12.539,0,0,0,45.847,26.314l9.2,9.194a.323.323,0,0,1,0,.456l-8.992,8.992a.32.32,0,0,1-.454,0l-9.2-9.2A12.535,12.535,0,0,0,51.222,50.8a.325.325,0,0,1,.309.084L65.5,64.854l2.826-2.828L57.34,51.042A.323.323,0,0,1,57.34,50.586ZM44.534,32.953a1.494,1.494,0,1,0,1.043,2.569l.016-.016a1.5,1.5,0,0,0-1.059-2.553Zm-1.51-.016a2.138,2.138,0,0,1,3.025,3.022l-.024.021a2.137,2.137,0,0,1-3-3.043ZM41.9,31.813,39.908,35.4l3.677,3.675,3.585-1.992L49.162,33.5l-3.675-3.677ZM50,58.929a1.627,1.627,0,0,0-2.28-.016l-.016.016a1.622,1.622,0,1,0,2.3,0Zm-1.148-1.119a2.269,2.269,0,1,1-1.6.663l.021-.018A2.266,2.266,0,0,1,48.853,57.809Zm.5-3.321h-1v1c.1-.01.2-.018.3-.024H48.7l.008,0h.283l.008,0h.047c.1.005.2.013.3.024v-1Zm3.806,1.987-.7-.7-.708.708.029.024.013.01.005.005.005,0,.005.005h0l.005.005.008.005.005.005.005,0,.005.005,0,0,0,0,.011.011.005,0,.005.005.005,0v0l.008.005.021.018h0l.005.005c.079.068.152.134.22.2s.147.155.223.241l0,0,0,0,0,.005.005.005.005.005.005.005.005.005,0,.005.005.005v0l.005,0,.005.008,0,.005.005.005.005.005.005.005,0,.005.005.005h0l.034.042Zm1.287,4.1v-.993h-1c.008.092.016.186.021.28V59.9l0,.005v.008h0V60h0v.039h0v.1h0v.013l0,.013V60.2h0v.047l0,.008V60.3l0,.008v.005c0,.092-.011.178-.018.267h1ZM52.454,64.38l.7-.7-.7-.705c-.063.073-.126.147-.189.218l-.005.005-.005.005,0,0-.008.008,0,.005-.005.005-.011.011h0l0,.005-.005.005-.005.005-.005,0-.005.005,0,.005h0l-.005.005-.005.005-.005.005,0,.005-.005,0,0,0,0,0-.005.005,0,.005-.005.005-.005.005-.005,0v0l0,0-.005.005-.005.005-.005.005-.005,0,0,.005h0l-.005.005-.034.031,0,0v0l-.016.013-.005.005-.005.005,0,.005-.005,0-.005.005h0l-.005.005-.005.005-.005.005-.005,0-.005.005,0,.005-.01.008h0l-.005.005-.005.005c-.079.071-.157.142-.241.207Zm-4.1,1.287h1v-1c-.1.011-.21.018-.317.024h-.047l-.008,0h-.254l-.005,0h-.055l-.008,0h-.042l-.005,0H48.6c-.084,0-.165-.01-.246-.018v1Zm-3.806-1.989.7.7.708-.7-.086-.073h0l-.047-.042-.005,0-.016-.016-.005,0-.005-.005-.005-.005,0,0,0,0-.005-.005-.005,0-.005-.005L45.76,63.5l-.005,0v0l-.005-.005-.005,0q-.083-.075-.157-.149t-.149-.157l0,0v0l-.018-.021-.005-.005-.005-.005-.005-.005,0,0,0,0,0-.005-.005-.005-.005-.005-.005-.005-.005-.005,0-.005-.005-.005,0,0,0,0-.005-.005,0-.005-.005-.005-.01-.011,0-.008-.005-.005-.011-.011-.005-.005-.013-.016-.005-.005,0-.005v0l-.034-.042Zm1.381-.909.113.118.118.115.005,0,0,.005.011.008,0,.005.005,0,.005.005,0,0,.005.005.005,0,0,.005h0l0,0,.005.005.008.008.005,0,0,.005.005,0,.005,0v0l0,0,.005,0,.008.008.005.005,0,0,.011.008h0l0,0,.024.018,0,0,.076.063,0,0h0l.005,0,.029.024,0,0h0l0,0,.005.005.005,0,.005,0,0,.005.005,0,.005,0,0,0,0,0,.005,0,.005.005,0,0,.005,0,.005.005.005,0,.005,0v0l.005,0,0,0,.005,0,.005.005.005,0,.005,0,.005.005.005,0h0l0,0,.005.005.005,0,.005,0,.005.005.005,0,.005,0,0,0,0,0,.005,0,0,0,.008.005,0,0,.005,0,.005.005.005,0,0,0h0l.005.005.005,0,.005,0,.005.005.008.005a3.96,3.96,0,0,0,2.107.668h.1a3.965,3.965,0,0,0,2.741-1.1h0l.055-.052,0-.005.005-.005.005-.005h0l.005,0,0-.005a3.978,3.978,0,0,0,1.156-2.7v-.157a3.942,3.942,0,0,0-.06-.639l0-.005v-.013l0-.005v-.005l0-.005a3.911,3.911,0,0,0-.621-1.507l0,0,0-.005,0-.005,0-.005-.005-.005v0l0,0-.005-.008L52.11,57.8l-.005-.01-.005,0-.005-.01h0l0-.005-.005,0,0-.005,0-.005,0-.005-.005,0,0-.005,0-.005h0l0-.005-.005,0,0-.005,0-.005-.005-.005,0-.005,0,0,0-.005,0,0,0,0,0,0,0-.005-.005-.005,0-.005,0,0,0-.005-.005-.005,0,0v0l0,0L52,57.651l-.013-.016,0-.005,0-.005,0,0,0,0q-.079-.1-.165-.2l0,0-.005-.005,0-.005-.005,0,0,0,0,0,0-.005-.005,0,0-.005-.005-.005,0,0-.005-.005-.005-.005v0l0,0-.005,0,0-.005-.005-.005-.005,0,0-.005-.005-.005-.026-.026-.005-.005L51.7,57.3h0l-.005-.005,0-.005-.024-.024-.024-.021-.005-.005,0-.005h0l-.011-.008-.005-.005,0-.005-.005,0L51.6,57.2h0l-.008-.008-.005-.005,0,0-.005-.005-.005,0-.005-.005,0,0v0l-.005,0-.005-.005,0,0-.005-.005-.005-.005,0,0-.005-.005h0l0,0-.005-.005,0,0-.005-.005c-.073-.066-.149-.131-.228-.191h0l0,0-.089-.068-.005,0-.005-.005-.005,0,0,0h0l-.005-.005-.005,0,0-.005-.005,0-.005,0-.005,0-.005-.005-.005,0-.005,0-.005-.005-.005,0-.005,0,0-.005-.005,0-.005,0h0l-.005-.005-.005,0-.005,0-.005-.005-.008,0-.005-.005A3.959,3.959,0,0,0,48.97,56.1H48.9l-.008,0h-.076l-.005,0h-.076a3.965,3.965,0,0,0-2.681,1.153l0,.005-.005,0h0l-.005.005-.005.005a3.966,3.966,0,0,0-1.153,2.7v.157a3.994,3.994,0,0,0,.066.666v.008l.005.029h0a3.926,3.926,0,0,0,.616,1.481l.005.005,0,.005,0,.005,0,0,0,0,0,0,0,.005,0,.005,0,.005.005,0,.005.01,0,.005.005,0v0l0,0,0,.005.005.005,0,.005,0,0,0,.005.005.005,0,.005h0l0,0,0,.005.005.005,0,.005,0,0,0,.005.005.005,0,.005,0,0h0l.005.005,0,.005.016.021.005.005.005.008.005.005.005.008.005.005.008.013h0l.005.005.005.008.005.005.008.013.005,0v0l.081.094,0,.005,0,.005.005,0v0l0,0,.005.005,0,0,.005.005,0,.005.005,0,0,.005.005.005h0l0,0,.005.005,0,.005.005,0,0,.005.005.005,0,0,.005.005,0,0v0l.005,0,0,.005.005.005Zm-2.668-3.187v.993h1c-.011-.092-.016-.186-.021-.28V60.26l0-.008v-.013h0v-.055l0-.005v-.021h0v-.039h0v-.1h0v-.034l0-.013V59.9l0,0v-.05c.005-.089.013-.178.021-.265h-1Zm13.88-18.415a.322.322,0,0,0,.456-.456l-.456-.453a.322.322,0,0,0-.456.453Zm1.822,1.822a.322.322,0,0,0,.456-.456l-.456-.456a.323.323,0,0,0-.456.456Zm1.821,1.822a.323.323,0,0,0,.456-.456l-.456-.456a.322.322,0,0,0-.456.456Zm1.821,1.822a.323.323,0,0,0,.456-.456l-.456-.456a.323.323,0,0,0-.456.456Zm1.822,1.822A.323.323,0,0,0,64.885,48l-.456-.456a.322.322,0,0,0-.456.456Zm1.821,1.821a.323.323,0,0,0,.456-.456l-.456-.456a.322.322,0,0,0-.456.456ZM68.072,52.1a.323.323,0,0,0,.456-.456l-.456-.456a.322.322,0,0,0-.456.456Zm1.822,1.822a.322.322,0,0,0,.456-.456l-.456-.456a.323.323,0,0,0-.456.456Zm1.641,1.641a.323.323,0,0,0,.456-.456l-.275-.275a.323.323,0,0,0-.456.456ZM55.321,38.436a.321.321,0,0,0-.453.453l.453.456a.322.322,0,0,0,.456-.456Zm-4.788,9.386a.323.323,0,0,0,.456-.456l-.453-.456a.322.322,0,0,0-.456.456Zm1.821,1.822a.323.323,0,0,0,.456-.456l-.456-.456a.322.322,0,0,0-.453.456Zm1.822,1.821a.323.323,0,0,0,.456-.456l-.456-.456a.323.323,0,0,0-.456.456ZM56,53.286a.322.322,0,0,0,.456-.456L56,52.374a.323.323,0,0,0-.456.456Zm1.822,1.822a.323.323,0,0,0,.456-.456l-.456-.456a.323.323,0,0,0-.456.456Zm1.821,1.819a.322.322,0,0,0,.456-.454l-.456-.456a.323.323,0,0,0-.456.456Zm1.821,1.824a.323.323,0,0,0,.456-.456l-.456-.456a.322.322,0,0,0-.456.456Zm1.822,1.821a.323.323,0,0,0,.456-.456l-.456-.456a.323.323,0,0,0-.456.456Zm1.641,1.641a.322.322,0,0,0,.456-.456l-.275-.275a.322.322,0,0,0-.453.456ZM48.714,45.088a.323.323,0,0,0-.456.456l.454.456a.322.322,0,0,0,.456-.456Zm20.4,19.9a.322.322,0,0,1,0,.645H50.551a.322.322,0,0,1,0-.645Zm-10.872,1a.322.322,0,0,1,0,.645H45.4a.322.322,0,0,1,0-.645Zm-14.158,0a.322.322,0,1,1,0,.645H42.479a.322.322,0,0,1,0-.645Zm27.645-.183a.322.322,0,0,1,0,.645H65.643a.322.322,0,0,1,0-.645ZM45.252,55.773l-.7.7.7.708q.09-.114.189-.22l.005-.005.005-.005,0,0,.005-.008.005,0,.005-.005.008-.01h0l.005-.005.005-.005.005-.005L45.5,56.9l0-.005,0,0,0,0,.005,0,.005-.005,0-.005.005-.005.005-.005,0,0,0,0,0-.005.005,0,.005-.005.005-.005.005-.005h0l0-.005.005,0,.005-.005.005-.005,0-.005.005,0h0l.005-.005L45.6,56.8l0-.005.005-.005.005,0,0-.005h0l.005-.005,0-.005.005,0,.005-.005.005-.005,0,0,0,0,.005,0,0-.005.005-.005.005-.005.005-.005h0l.005,0,.005-.005.005-.005.005-.005,0,0,.005-.005h0l.011-.01.005-.005.005,0,.008-.008,0,0,.005-.005.005,0c.071-.066.144-.128.218-.189Z" transform="translate(-36.09 -26.003)" fill="#adb5bc" stroke="#194e78" stroke-width="1" fill-rule="evenodd"/>
    </g>
  </g>
</svg>
