<svg id="maintenance" xmlns="http://www.w3.org/2000/svg" width="43.892" height="43.909" viewBox="0 0 43.892 43.909">
  <path id="Path_30" data-name="Path 30" d="M0,18.248c.577-.624,1.127-1.278,1.744-1.86a.933.933,0,0,1,1.294.086q1.915,1.872,3.791,3.782a.607.607,0,0,1-.017.916.647.647,0,0,1-.95-.081Q4.28,19.523,2.709,17.942c-.111-.111-.214-.229-.313-.336l-.881.931L17.326,34.35l.881-.9c-.056-.058-.166-.18-.282-.3L8.108,23.34c-.465-.465-.544-.83-.252-1.137s.689-.243,1.167.236q4.893,4.893,9.787,9.787c.111.111.213.23.361.393l.891-.887c1.374-1.373,2.054-1.467,3.748-.494,1.131-1.137,2.276-2.274,3.4-3.433a.645.645,0,0,0,.06-.524A8.55,8.55,0,0,1,37.6,16.478a1.076,1.076,0,0,1,.527,1.942c-.934.945-1.885,1.872-2.81,2.826a1.182,1.182,0,0,0-.255.585,2.783,2.783,0,0,0,.99,2.571c.773.822,1.621.558,2.476.6.1,0,.206-.136.3-.224.941-.938,1.877-1.88,2.819-2.817A1.076,1.076,0,0,1,43.6,22.5a8.249,8.249,0,0,1-2.344,8.28,8.184,8.184,0,0,1-8.311,2.051.8.8,0,0,0-.921.25c-1.316,1.35-2.658,2.675-3.993,4.005-.1.1-.222.179-.4.317.51.327.919.639,1.368.873a16.885,16.885,0,0,1,4.269,3.257c3.1,3.145,6.235,6.249,9.355,9.37a3.586,3.586,0,0,1-.01,5.477c-.646.647-1.31,1.277-1.934,1.943a5.2,5.2,0,0,1-2.713,1.753H36.942a5.239,5.239,0,0,1-2.692-1.707c-2.922-2.954-5.852-5.9-8.818-8.814a17.479,17.479,0,0,1-3.391-4.434c-.22-.425-.515-.811-.83-1.3-.137.175-.215.3-.315.4-1.331,1.335-2.654,2.678-4.005,3.993a.821.821,0,0,0-.246.961,8.5,8.5,0,0,1-5.9,10.578c-.463.129-.938.216-1.406.322H7.628c-.442-.094-.889-.173-1.326-.285a1.077,1.077,0,0,1-.532-1.958c.934-.94,1.876-1.876,2.811-2.815.088-.089.232-.2.228-.293-.042-.853.229-1.7-.593-2.473a2.761,2.761,0,0,0-2.563-1,1.27,1.27,0,0,0-.618.275c-.963.932-1.9,1.893-2.853,2.833a1.053,1.053,0,0,1-1.87-.507C.185,53.39.1,52.916,0,52.446V50.818a3.218,3.218,0,0,0,.078-.326A8.319,8.319,0,0,1,1.634,46.6,8.466,8.466,0,0,1,6.5,43.32a.62.62,0,0,1,.763.314.568.568,0,0,1-.148.769,1.451,1.451,0,0,1-.5.219,7.132,7.132,0,0,0-4.863,4.452,6.8,6.8,0,0,0-.271,4.15c.141-.132.245-.226.344-.324.859-.858,1.723-1.711,2.572-2.579a1.089,1.089,0,0,1,.868-.369c.656.019,1.316-.022,1.969.017a1.242,1.242,0,0,1,.716.285c.64.59,1.26,1.206,1.847,1.847a1.307,1.307,0,0,1,.3.75,15.939,15.939,0,0,1,0,2.012,1.287,1.287,0,0,1-.314.748c-.846.89-1.727,1.746-2.595,2.615-.108.108-.208.222-.34.362a6.548,6.548,0,0,0,2.552.126,6.969,6.969,0,0,0,5.732-4.4,6.914,6.914,0,0,0-.916-7.162,7,7,0,0,0-4.726-2.744c-.5-.078-.732-.36-.664-.763s.389-.581.89-.487.97.23,1.459.324a.536.536,0,0,0,.415-.07c1.161-1.138,2.308-2.291,3.456-3.439a1.072,1.072,0,0,0-.066-.139,2.281,2.281,0,0,1,.265-3.3c.382-.381.781-.747,1.242-1.186-.194-.157-.336-.252-.455-.371Q8.3,27.265.584,19.534A6.566,6.566,0,0,1,0,18.755C0,18.591,0,18.42,0,18.248ZM41.637,51.762c-.1.134-.175.252-.265.361a1.831,1.831,0,0,1-2.464.405,18.23,18.23,0,0,1-2-1.924.548.548,0,0,1,.08-.808.594.594,0,0,1,.819-.049,2.337,2.337,0,0,1,.282.262c.445.443.882.9,1.339,1.327a.637.637,0,0,0,.921,0,.623.623,0,0,0,0-.889c-.063-.077-.137-.144-.208-.215L32.9,42.992c-.071-.071-.139-.145-.215-.208a.622.622,0,0,0-.887.008.647.647,0,0,0-.022.891,3.4,3.4,0,0,0,.268.277q1.908,1.91,3.815,3.819a.648.648,0,1,1-.9.908q-2.051-2.04-4.09-4.091a1.858,1.858,0,0,1-.536-1.525,2.056,2.056,0,0,1,1.111-1.612c-.6-.445-1.124-.882-1.694-1.253a23.338,23.338,0,0,1-2.363-1.458c-1.3-1.089-2.5-2.3-3.737-3.455l-.281-.262-4.577,4.561a3.658,3.658,0,0,1,.345.27c.76.755,1.509,1.521,2.273,2.272A18.823,18.823,0,0,1,24,45.892c.369.6.831,1.137,1.271,1.728.917-1.3,2.216-1.484,3.2-.508q3.8,3.775,7.575,7.575a1.908,1.908,0,0,1-.283,3c-.055.04-.111.079-.167.118a2.247,2.247,0,0,0,3.448.321c.946-.911,1.866-1.85,2.792-2.784A2.3,2.3,0,0,0,41.637,51.762ZM37.047,17.686A7.212,7.212,0,1,0,39.8,30.376a7.025,7.025,0,0,0,2.55-7.3c-.965.966-1.91,1.939-2.891,2.873a1.42,1.42,0,0,1-.82.345,15.726,15.726,0,0,1-2.012,0,1.163,1.163,0,0,1-.678-.271c-.648-.6-1.278-1.228-1.878-1.877a1.241,1.241,0,0,1-.287-.715c-.04-.611.011-1.229-.019-1.841a1.318,1.318,0,0,1,.458-1.091C35.164,19.589,36.081,18.652,37.047,17.686ZM20.316,42.864c-.78-.78-1.594-1.594-2.409-2.4-.038-.038-.1-.089-.141-.082-.514.08-1.027.163-1.538.265-.082.016-.148.128-.218.2-.646.645-1.289,1.292-1.937,1.934-.453.45-.91.894-1.4,1.373a8.644,8.644,0,0,1,3.2,3.159Zm6.342-6.381,4.433-4.429a8.713,8.713,0,0,1-3.128-3.168c-1.069,1.071-2.091,2.106-3.131,3.123a1.092,1.092,0,0,0-.421.954,3.313,3.313,0,0,1-.161.83c-.017.1-.032.242.022.3C25.078,34.91,25.9,35.722,26.658,36.483ZM23.15,33.042a1.061,1.061,0,0,0-.592-1.057.947.947,0,0,0-1.142.213q-2.7,2.69-5.393,5.394A.98.98,0,0,0,16,39.045a.99.99,0,0,0,1.452-.052q2.69-2.674,5.359-5.368A2.326,2.326,0,0,0,23.15,33.042ZM35.339,55.954a3.159,3.159,0,0,0-.361-.507q-3.64-3.657-7.294-7.3a1.645,1.645,0,0,0-.253-.229.608.608,0,0,0-.82.061.584.584,0,0,0-.076.814,2.332,2.332,0,0,0,.287.315q3.6,3.6,7.206,7.206a1.793,1.793,0,0,0,.39.327C34.834,56.866,35.324,56.566,35.339,55.954Z" transform="translate(0 -16.166)" fill="#194e78"/>
  <path id="Path_31" data-name="Path 31" d="M186.9,197.659a2.3,2.3,0,0,1,.19,3.586c-.925.933-1.845,1.872-2.792,2.784a2.246,2.246,0,0,1-3.448-.321c.056-.04.112-.078.167-.118a1.907,1.907,0,0,0,.283-3q-3.774-3.8-7.575-7.575c-.981-.976-2.28-.788-3.2.508-.44-.591-.9-1.13-1.271-1.728a18.87,18.87,0,0,0-2.592-3.759c-.764-.751-1.513-1.516-2.273-2.272a3.381,3.381,0,0,0-.345-.27l4.577-4.561.281.262c1.24,1.159,2.439,2.366,3.737,3.455a23.335,23.335,0,0,0,2.363,1.458c.569.371,1.1.807,1.694,1.253a2.054,2.054,0,0,0-1.111,1.612,1.858,1.858,0,0,0,.536,1.525q2.037,2.053,4.09,4.091a.648.648,0,1,0,.9-.908q-1.9-1.913-3.815-3.819a3.821,3.821,0,0,1-.268-.277.648.648,0,0,1,.022-.891.622.622,0,0,1,.887-.008,2.644,2.644,0,0,1,.215.208l7.241,7.241c.071.071.145.139.208.215a.625.625,0,0,1,0,.889.637.637,0,0,1-.921,0c-.457-.432-.893-.884-1.339-1.327a2.339,2.339,0,0,0-.282-.262.6.6,0,0,0-.819.049.546.546,0,0,0-.08.808,18.233,18.233,0,0,0,2,1.924,1.831,1.831,0,0,0,2.464-.405C186.727,197.91,186.8,197.792,186.9,197.659Z" transform="translate(-145.265 -162.064)" fill="#b1b1b1"/>
  <path id="Path_32" data-name="Path 32" d="M254.939,27.757c-.966.965-1.884,1.9-2.826,2.812a1.314,1.314,0,0,0-.458,1.091c.032.613-.021,1.23.019,1.841a1.241,1.241,0,0,0,.287.715c.6.65,1.229,1.276,1.878,1.877a1.146,1.146,0,0,0,.678.271,15.938,15.938,0,0,0,2.012,0,1.42,1.42,0,0,0,.82-.345c.981-.934,1.926-1.907,2.891-2.873a7.022,7.022,0,0,1-2.55,7.3,7.2,7.2,0,1,1-2.752-12.691Z" transform="translate(-217.892 -26.237)" fill="#8ba4ba"/>
  <path id="Path_33" data-name="Path 33" d="M118.322,230.092l-4.441,4.443a8.643,8.643,0,0,0-3.2-3.159c.488-.479.946-.924,1.4-1.373.647-.642,1.292-1.289,1.937-1.934.071-.07.135-.182.218-.2.51-.1,1.024-.184,1.538-.264.042-.007.1.045.141.082C116.728,228.5,117.541,229.312,118.322,230.092Z" transform="translate(-98.006 -203.394)" fill="#8ba4ba"/>
  <path id="Path_34" data-name="Path 34" d="M214.057,134.839c-.763-.761-1.581-1.572-2.387-2.4-.054-.055-.039-.2-.022-.3a3.263,3.263,0,0,0,.161-.83,1.094,1.094,0,0,1,.421-.954c1.039-1.017,2.06-2.052,3.131-3.123a8.713,8.713,0,0,0,3.128,3.168Z" transform="translate(-187.399 -114.521)" fill="#8ba4ba"/>
  <path id="Path_35" data-name="Path 35" d="M144.486,154.563a2.319,2.319,0,0,1-.338.583q-2.666,2.7-5.359,5.368a1,1,0,1,1-1.429-1.4q2.688-2.707,5.393-5.394a.947.947,0,0,1,1.142-.213A1.062,1.062,0,0,1,144.486,154.563Z" transform="translate(-121.337 -137.686)" fill="#fff"/>
  <path id="Path_36" data-name="Path 36" d="M239.539,300.5c-.015.613-.5.913-.92.688a1.794,1.794,0,0,1-.39-.328q-3.605-3.6-7.206-7.206a2.406,2.406,0,0,1-.287-.315.586.586,0,0,1,.076-.814.607.607,0,0,1,.82-.061,1.541,1.541,0,0,1,.253.229q3.65,3.648,7.294,7.3A3.038,3.038,0,0,1,239.539,300.5Z" transform="translate(-204.2 -260.71)" fill="#fff"/>
</svg>
