<svg xmlns="http://www.w3.org/2000/svg" width="45.263" height="45.389" viewBox="0 0 45.263 45.389">
  <g id="icon" transform="translate(0.002 -0.005)">
    <path id="Path_123" data-name="Path 123" d="M14.866,25.862l-2.448,1.417-1.031,3.736,1.546,2.963,1.417,1.546.515,8.632h5.668l-.773-8.632,1.933-.9.773-2.061.9-3.35-1.675-1.933-1.16-2.061h-.773L19.118,28.7l-1.546,1.675L15.382,28.7Z" fill="#aebfce"/>
    <path id="Path_121" data-name="Path 121" d="M6.584,189.61a6.4,6.4,0,0,1-.825-.4,2.258,2.258,0,0,1-1-2.009c0-1.121,0-2.244,0-3.439H3.564c-.413,0-.828,0-1.241,0a2.238,2.238,0,0,1-2.305-2.29q-.011-8.53,0-17.058c0-.523.246-.82.658-.82s.671.316.671.864q0,5.981,0,11.964,0,2.437,0,4.874c0,.8.33,1.135,1.125,1.139.736,0,1.474,0,2.286,0v-.575q0-7.333,0-14.666a3.875,3.875,0,0,1,.1-1.008,2.247,2.247,0,0,1,2.264-1.637c1.729-.009,3.457,0,5.185,0h25.57a2.329,2.329,0,0,1,2.619,2.619q0,7.312,0,14.622v.648h1.15c.443,0,.887.013,1.33-.006a.925.925,0,0,0,.932-.973,4.123,4.123,0,0,1,.019-.618.619.619,0,0,1,.683-.559.611.611,0,0,1,.623.574,2.38,2.38,0,0,1-2.523,2.911H40.5c0,.835,0,1.627,0,2.42,0,.413.014.829-.012,1.24a2.245,2.245,0,0,1-1.622,2.1,1.773,1.773,0,0,0-.192.091Zm7.39-1.332v-.534c0-2.363-.006-4.726.007-7.09a.785.785,0,0,0-.365-.726,6.29,6.29,0,0,1,.845-10.638.849.849,0,0,1,1.349.813c.007.96.012,1.92,0,2.881a.559.559,0,0,0,.326.6c.42.212.822.659,1.224.652.425-.007.838-.439,1.268-.664a.505.505,0,0,0,.294-.529c-.014-.945-.007-1.891,0-2.836,0-.974.6-1.327,1.462-.864a6.294,6.294,0,0,1,.727,10.6.749.749,0,0,0-.349.688c.014,2.393.007,4.786.008,7.178,0,.143.014.285.021.443h6.681v-2.562c-1.131-.238-1.309-.462-1.309-1.62,0-.635-.009-1.27,0-1.9a1.09,1.09,0,0,1,1.169-1.16c.318-.006.637,0,.973,0,0-1.987,0-3.9,0-5.824a1.123,1.123,0,0,0-.062-.3,14.084,14.084,0,0,1-.462-4.557,1.1,1.1,0,0,1,1.057-1.184c.9-.019,1.8-.017,2.7,0a.987.987,0,0,1,1,.9,15.628,15.628,0,0,1-.069,3.044,19.243,19.243,0,0,0-.438,4.075c.047,1.12.008,2.245.011,3.367,0,.155.013.31.02.487.394,0,.734-.013,1.073,0a1.016,1.016,0,0,1,1.035.958c.039.9.037,1.8,0,2.7a1.017,1.017,0,0,1-.942.958c-.111.017-.223.036-.329.052v2.6h4.952c1.036,0,1.318-.278,1.318-1.308q0-9.881,0-19.763c0-1.054-.279-1.33-1.346-1.33H7.414a2.915,2.915,0,0,0-.529.024.88.88,0,0,0-.772.8,3.236,3.236,0,0,0-.021.442q0,9.949,0,19.9c0,.089,0,.178,0,.265a.936.936,0,0,0,1.025.974c.739.008,1.478,0,2.216,0Zm.506-17.428c-.156.114-.23.161-.3.217a4.956,4.956,0,0,0,.489,7.972,1.266,1.266,0,0,1,.644,1.2c-.018,2.495-.008,4.989-.008,7.485v.517h4.12v-.522c0-2.465.014-4.931-.011-7.4a1.366,1.366,0,0,1,.686-1.308,4.952,4.952,0,0,0,.779-7.648c-.172-.171-.368-.314-.638-.542,0,.964-.017,1.813.007,2.662a1.018,1.018,0,0,1-.573,1.006c-.578.327-1.144.674-1.706,1.026a1.037,1.037,0,0,1-1.2.007c-.562-.353-1.127-.7-1.706-1.028a1.06,1.06,0,0,1-.594-1.043C14.5,172.618,14.48,171.781,14.48,170.85ZM30.706,181v-.517c0-1.491-.022-2.982.011-4.472a8.878,8.878,0,0,1,.227-1.964,11.816,11.816,0,0,0,.268-3.542h-2.2c.115,1.08.172,2.123.349,3.145a13.773,13.773,0,0,1,.287,2.671c-.03,1.4-.008,2.8-.008,4.207V181Zm2.132,1.369H27.521v1.9h5.317Zm-3.976,3.3v2.583h2.63v-2.611c-.8,0-1.559,0-2.323,0C29.07,185.639,28.97,185.655,28.863,185.665Z" transform="translate(-0.014 -144.217)" fill="#194e78"/>
    <path id="Path_122" data-name="Path 122" d="M43.9,14.575H1.332c0,.7,0,1.386,0,2.074a1.616,1.616,0,0,1-.05.48.6.6,0,0,1-.681.444.609.609,0,0,1-.588-.56,2.475,2.475,0,0,1-.011-.4Q0,12.03,0,7.443A2.283,2.283,0,0,1,2.527,4.924c1.358,0,2.716,0,4.133,0,0-.865-.03-1.7.013-2.54A2.973,2.973,0,0,1,6.955,1.2,2.121,2.121,0,0,1,8.938.014q1.684-.016,3.368,0A2.266,2.266,0,0,1,14.624,2.3c.017.854,0,1.707,0,2.59H30.609c0-.86-.014-1.711,0-2.562A2.2,2.2,0,0,1,32.042.188,2.415,2.415,0,0,1,32.9.018C34.023,0,35.146,0,36.269.013a2.256,2.256,0,0,1,2.3,2.3c.011.854,0,1.706,0,2.613h.736c1.182,0,2.363-.009,3.545,0a2.248,2.248,0,0,1,2.376,2.4q.005,13.026,0,26.053a2.2,2.2,0,0,1-.007.265.609.609,0,0,1-.6.6.621.621,0,0,1-.7-.532,2.135,2.135,0,0,1-.021-.485q0-9.039,0-18.078C43.9,14.974,43.9,14.8,43.9,14.575Zm-29.274-8.3c0,.712,0,1.375,0,2.038a2.291,2.291,0,0,1-2.456,2.472c-1.005.008-2.009.006-3.014,0a2.293,2.293,0,0,1-2.5-2.512c0-.659,0-1.318,0-2.017-1.441,0-2.827-.007-4.213,0-.792.006-1.113.346-1.113,1.152q0,2.7,0,5.407c0,.128.017.255.026.378H43.9c0-2.039.009-4.046-.006-6.052,0-.543-.4-.875-1.017-.881-1.359-.014-2.718,0-4.078,0a1.116,1.116,0,0,0-.221.051c0,.681,0,1.345,0,2.009a2.277,2.277,0,0,1-2.412,2.464c-1.049.013-2.1.034-3.146-.013a3.113,3.113,0,0,1-1.3-.337,2.138,2.138,0,0,1-1.1-1.99c-.007-.717,0-1.434,0-2.168Zm-6.636-.9c0,.99,0,1.978,0,2.968,0,.748.335,1.094,1.074,1.1q1.573.014,3.146,0a.945.945,0,0,0,1.077-1.057q.012-2.991,0-5.981a.958.958,0,0,0-1.077-1.06q-1.55-.007-3.1,0c-.765,0-1.115.347-1.119,1.1C7.988,3.424,7.991,4.4,7.991,5.372Zm29.251.044c0-.99,0-1.978,0-2.968,0-.755-.356-1.1-1.12-1.1q-1.529-.005-3.057,0c-.759,0-1.12.352-1.122,1.106q-.007,2.946,0,5.893c0,.748.341,1.094,1.08,1.1q1.573.014,3.146,0c.738-.007,1.07-.354,1.074-1.1C37.245,7.366,37.241,6.391,37.241,5.416Z" transform="translate(0)" fill="#194e78"/>
  </g>
</svg>
