<svg xmlns="http://www.w3.org/2000/svg" width="45.549" height="45.543" viewBox="0 0 45.549 45.543">
  <g id="team-management" transform="translate(0.01 -0.001)">
    <circle id="Ellipse_9" data-name="Ellipse 9" cx="15" cy="15" r="15" transform="translate(7.765 8.042)" fill="#adb5bc"/>
    <path id="Path_131" data-name="Path 131" d="M8.851,27.451l-.694-4.559s-.1-2.875,0-3.37,1.09-2.576,1.288-3.072a37.422,37.422,0,0,1,2.18-3.072l3.568-3.171,3.072-1.486,3.171-.892H25.8a8.82,8.82,0,0,1,2.18.892,28.994,28.994,0,0,0,2.775,1.486L32.536,11.5l2.378,2.775L37,18.929l.4.594s-.3,3.37,0,3.766-.4,3.766-.4,3.766L34.914,25.37l-2.378-1.388,2.378-2.973s-.892-2.18-.991-2.478-1.387-2.081-1.387-2.081H28.671l-.694,1.189s-.2.4-.892,0a2.081,2.081,0,0,1-.892-1.189l-1.288-1.388-1.288-.792H21.932a10.88,10.88,0,0,0-1.685,1.189c-.2.3-.793.991-.793.991l-1.189.594v.595l-2.279-.595L14.2,16.451,12.617,17.64l-.991,1.883s.3,1.091,0,1.487,0,1.883,0,1.883l.991,1.09a7.15,7.15,0,0,1-.991.595A23.763,23.763,0,0,0,8.851,27.451Z" fill="#fff"/>
    <path id="Path_129" data-name="Path 129" d="M-.009,20.46a3.472,3.472,0,0,1,.819-.446c1.2-.282,2.4-.529,3.6-.76a.488.488,0,0,0,.438-.45c.122-.533.254-1.066.424-1.585a.462.462,0,0,0-.165-.573c-.947-.831-1.883-1.673-2.823-2.512a.733.733,0,0,1-.181-1.125q.929-1.618,1.865-3.232c.307-.528.511-.6,1.1-.41,1.2.392,2.391.782,3.582,1.185a.43.43,0,0,0,.541-.12c.39-.427.8-.836,1.225-1.225a.437.437,0,0,0,.127-.542c-.4-1.177-.784-2.359-1.173-3.54-.214-.65-.147-.829.429-1.162Q11.4,3.04,13,2.119a.733.733,0,0,1,1.126.177c.831.928,1.665,1.852,2.482,2.791a.512.512,0,0,0,.644.19,11.253,11.253,0,0,1,1.5-.4.573.573,0,0,0,.512-.539c.233-1.206.493-2.407.744-3.61.118-.566.307-.726.876-.727q1.891,0,3.781,0c.541,0,.744.171.855.7.261,1.245.532,2.489.774,3.739a.454.454,0,0,0,.418.415,16.255,16.255,0,0,1,1.587.421.486.486,0,0,0,.608-.169c.82-.937,1.653-1.862,2.482-2.791.4-.453.63-.493,1.16-.189q1.618.927,3.232,1.864c.5.292.581.51.4,1.067C35.792,6.242,35.413,7.427,35,8.6a.538.538,0,0,0,.183.681,11.846,11.846,0,0,1,1.1,1.1.508.508,0,0,0,.649.154c1.162-.4,2.331-.775,3.5-1.157.619-.2.812-.134,1.132.416q.916,1.574,1.824,3.153c.333.577.3.795-.194,1.231-.9.8-1.785,1.606-2.694,2.392a.582.582,0,0,0-.221.754,5.554,5.554,0,0,1,.348,1.282c.061.463.283.623.722.7,1.166.209,2.321.471,3.48.713.533.112.706.312.707.85q.005,1.912,0,3.824a.715.715,0,0,1-.678.829c-1.245.264-2.489.536-3.739.775a.485.485,0,0,0-.444.442c-.122.533-.254,1.066-.424,1.585a.462.462,0,0,0,.163.573c.936.821,1.862,1.653,2.791,2.482.471.421.511.649.2,1.2q-.92,1.6-1.845,3.191c-.308.528-.514.6-1.1.412-1.181-.387-2.364-.769-3.538-1.176a.51.51,0,0,0-.645.177,11.845,11.845,0,0,1-1.1,1.1.532.532,0,0,0-.162.687c.4,1.147.765,2.3,1.143,3.455.213.648.146.833-.428,1.167q-1.6.925-3.2,1.84a.733.733,0,0,1-1.126-.179c-.831-.928-1.665-1.852-2.482-2.791a.51.51,0,0,0-.645-.185,13.47,13.47,0,0,1-1.5.4.542.542,0,0,0-.5.494q-.333,1.789-.75,3.562a3.5,3.5,0,0,1-.446.819H20.452a3.472,3.472,0,0,1-.446-.819q-.419-1.772-.75-3.562a.544.544,0,0,0-.5-.494,13.8,13.8,0,0,1-1.5-.4.514.514,0,0,0-.645.189c-.817.939-1.652,1.863-2.482,2.791A.735.735,0,0,1,13,43.426q-1.6-.918-3.194-1.843c-.576-.333-.644-.514-.431-1.162.378-1.153.746-2.309,1.143-3.455a.532.532,0,0,0-.162-.687,12.006,12.006,0,0,1-1.1-1.1.506.506,0,0,0-.644-.172c-1.174.409-2.359.787-3.54,1.172-.587.192-.794.116-1.1-.41q-.937-1.613-1.865-3.232a.732.732,0,0,1,.181-1.125c.94-.839,1.877-1.681,2.823-2.512a.462.462,0,0,0,.165-.573,14.3,14.3,0,0,1-.421-1.586.514.514,0,0,0-.485-.46c-1.192-.232-2.381-.472-3.562-.75a3.5,3.5,0,0,1-.819-.446Q-.008,22.773-.009,20.46ZM13.365,42.094c.916-1.024,1.817-2.027,2.709-3.036a.794.794,0,0,1,.9-.285c.923.266,1.854.5,2.785.741a.764.764,0,0,1,.639.648c.068.379.154.753.234,1.13q.3,1.451.612,2.9h3.014a2.626,2.626,0,0,0,.087-.265q.367-1.761.73-3.522c.145-.711.233-.771.926-.932.793-.183,1.577-.4,2.356-.633.65-.194.732-.188,1.193.328.867.971,1.736,1.94,2.618,2.926.791-.457,1.553-.911,2.33-1.339.245-.134.288-.258.2-.523-.409-1.189-.784-2.389-1.188-3.58a.762.762,0,0,1,.222-.878q1.034-1.007,2.041-2.04a.753.753,0,0,1,.878-.221c.43.157.87.289,1.306.43l2.618.854,1.516-2.627c-1.009-.9-1.994-1.8-3-2.672a.883.883,0,0,1-.295-1.057c.254-.8.475-1.617.671-2.436.169-.7.221-.777.934-.923,1.261-.259,2.519-.523,3.787-.787V21.269c-.131-.034-.257-.072-.384-.1q-1.74-.362-3.479-.72c-.613-.127-.7-.246-.848-.857-.195-.82-.4-1.64-.661-2.439a.924.924,0,0,1,.3-1.132c1-.861,1.97-1.751,2.975-2.65l-1.521-2.629c-1.3.428-2.565.833-3.822,1.265a.888.888,0,0,1-1.062-.285c-.558-.612-1.145-1.2-1.749-1.768-.553-.52-.586-.569-.345-1.3.4-1.22.8-2.441,1.2-3.681L32.167,3.451c-.92,1.029-1.814,2.019-2.694,3.02a.847.847,0,0,1-.983.288c-.892-.264-1.8-.494-2.7-.72a.791.791,0,0,1-.669-.673c-.094-.51-.208-1.015-.314-1.522-.176-.834-.353-1.667-.525-2.483H21.253c-.033.135-.065.248-.089.364-.244,1.174-.492,2.347-.726,3.522a.884.884,0,0,1-.711.8c-.905.215-1.8.456-2.7.718a.819.819,0,0,1-.949-.265c-.554-.638-1.12-1.264-1.685-1.894-.342-.383-.688-.763-1.037-1.149L10.731,4.969c.409,1.249.808,2.469,1.21,3.689.238.722.207.774-.358,1.3s-1.107,1.072-1.631,1.634-.581.592-1.3.354c-1.22-.4-2.441-.8-3.688-1.211L3.439,13.37c1.023.913,2.015,1.8,3.014,2.686a.822.822,0,0,1,.308.936c-.269.922-.5,1.854-.744,2.784a.744.744,0,0,1-.611.621c-.523.1-1.043.22-1.564.329l-2.5.526v3.041c1.3.271,2.589.55,3.882.8a.932.932,0,0,1,.827.836c.159.781.375,1.552.606,2.316.238.789.24.836-.37,1.379-.949.845-1.9,1.693-2.853,2.551l1.526,2.632c1.317-.435,2.583-.842,3.841-1.275a.864.864,0,0,1,1.024.276c.6.638,1.207,1.265,1.852,1.852a.937.937,0,0,1,.3,1.137c-.4,1.144-.774,2.3-1.137,3.456a.478.478,0,0,0,.091.425C11.732,41.166,12.543,41.621,13.365,42.094Z" transform="translate(0 0)" fill="#194e78"/>
    <path id="Path_130" data-name="Path 130" d="M63.065,80.052a4.519,4.519,0,0,1,3.018-2.4,4.473,4.473,0,0,1,.1-6.259c1.731-1.673,3.9-1.673,6.274.037A4.427,4.427,0,0,1,77.1,68.083c1.83.058,3.281,1.3,4.007,3.382a4.478,4.478,0,0,1,3.686-1.3,4.3,4.3,0,0,1,2.72,1.369c1.592,1.693,1.584,3.7-.042,6.158a4.541,4.541,0,0,1,3.068,2.344c.1-.55.232-1.1.295-1.649a14.1,14.1,0,0,0-2.935-10.546c-.332-.43-.329-.789,0-1.057s.728-.184,1.061.248a15.192,15.192,0,0,1,3.24,11.061,15.484,15.484,0,1,1-19.3-16.456,15.138,15.138,0,0,1,13.434,2.776,1.832,1.832,0,0,1,.239.2.627.627,0,0,1,.065.884.6.6,0,0,1-.87.15c-.3-.191-.57-.424-.861-.629A14.176,14.176,0,0,0,62.8,74.4a14,14,0,0,0,.185,5.385C63,79.866,63.033,79.946,63.065,80.052ZM78.926,90.707v-.651q0-4.156,0-8.314a2,2,0,0,1,.027-.486.658.658,0,0,1,1.3.071,3.689,3.689,0,0,1,.008.444v8.586c.531-.173,1-.309,1.448-.487a.47.47,0,0,0,.219-.356c.023-.607.007-1.216.011-1.823,0-.519.252-.828.659-.829s.667.311.673.825c0,.48,0,.959,0,1.439l.132.1c.882-.639,1.761-1.281,2.646-1.914a.925.925,0,0,0,.4-.867c-.027-1.036-.015-2.075,0-3.112a.659.659,0,0,1,.631-.719.674.674,0,0,1,.692.709c.015.266.006.533.006.8V85.37l.128.015c.681-1.087,1.648-2,1.554-3.5a2.785,2.785,0,0,0-2.929-2.923c-.978-.011-1.957,0-2.935,0A3.015,3.015,0,0,0,83.27,79a.757.757,0,0,0-.026.121c.008,1.734.023,3.467.024,5.2,0,.51-.339.822-.778.739-.424-.081-.556-.381-.555-.785.006-1.527.01-3.054,0-4.579a2.7,2.7,0,0,0-2.688-2.79q-2.467-.055-4.936,0A2.7,2.7,0,0,0,71.627,79.7c-.006.577.006,1.156-.006,1.734,0,.157-.013.386-.109.454a1.251,1.251,0,0,1-.72.284c-.345-.03-.5-.336-.5-.686,0-.826,0-1.65,0-2.494-1.254,0-2.5-.044-3.737.013a2.588,2.588,0,0,0-2.33,1.952c-.5,1.811.4,3.139,1.562,4.523,0-.772-.007-1.419,0-2.064.008-.518.274-.817.687-.8.394.013.634.3.642.8.008.667,0,1.334,0,2,0,1.678-.006,1.687,1.365,2.66.56.4,1.155.744,1.8,1.158v-.607c0-1.275,0-2.549,0-3.824a.7.7,0,0,1,.563-.789c.436-.1.77.25.771.79,0,1.541,0,3.082.008,4.624,0,.141.053.374.143.41.482.194.985.337,1.528.514V81.77a3.691,3.691,0,0,1,.008-.444.62.62,0,0,1,.619-.586.61.61,0,0,1,.663.479,1.82,1.82,0,0,1,.04.484q0,4,0,8c0,.9,0,.953.879,1C76.637,90.754,77.758,90.71,78.926,90.707ZM76.765,75.559a3.078,3.078,0,1,0-3.074-3.094A3.089,3.089,0,0,0,76.765,75.559Zm4.45-1.029a3.079,3.079,0,1,0,3.093-3.071A3.062,3.062,0,0,0,81.215,74.53Zm-8.864.044a3.079,3.079,0,1,0-3.1,3.052A3.085,3.085,0,0,0,72.351,74.574Z" transform="translate(-54.018 -53.839)" fill="#194e78"/>
  </g>
</svg>
