<svg xmlns="http://www.w3.org/2000/svg" width="46.855" height="31.212" viewBox="0 0 46.855 31.212">
  <path id="Path_15" data-name="Path 15" d="M48.431,27.061,61.8,15.605Q55.085,9.849,48.425,4.142l-.2.056c0,.75.013,1.5,0,2.251a1.2,1.2,0,0,1-1,1.316A1.143,1.143,0,0,1,45.852,6.74a13.319,13.319,0,0,1,.036-2.573A4.734,4.734,0,0,1,50.759,0Q61.841-.012,72.923,0q7.3,0,14.6,0a4.8,4.8,0,0,1,5.136,5.123q.007,10.492,0,20.987a4.791,4.791,0,0,1-5.1,5.1q-18.295,0-36.588,0a4.821,4.821,0,0,1-5.144-5.126c0-.429,0-.86,0-1.289.011-.843.47-1.364,1.2-1.366s1.187.5,1.2,1.358c.014.736,0,1.471,0,2.207ZM50.162,2.435c.24.221.362.341.493.454Q59.431,10.4,68.206,17.9a1.346,1.346,0,0,0,2.113-.022q8.775-7.506,17.545-15.017c.128-.11.247-.23.459-.428C75.578,2.435,62.951,2.435,50.162,2.435Zm-.011,26.32H88.345L74.833,17.168c-1.137.985-2.213,1.948-3.322,2.874a3.45,3.45,0,0,1-4.24.23,5.382,5.382,0,0,1-.5-.406c-1.031-.891-2.058-1.782-3.114-2.7ZM90.2,4.034l-13.5,11.572L90.2,27.174Z" transform="translate(-45.808 0.003)"/>
</svg>
