<svg xmlns="http://www.w3.org/2000/svg" xmlns:xlink="http://www.w3.org/1999/xlink" width="176" height="100" viewBox="0 0 176 100">
  <defs>
    <filter id="Rectangle_12" x="0" y="0" width="176" height="100" filterUnits="userSpaceOnUse">
      <feOffset dx="3" dy="4" input="SourceAlpha"/>
      <feGaussianBlur stdDeviation="3" result="blur"/>
      <feFlood flood-opacity="0.161"/>
      <feComposite operator="in" in2="blur"/>
      <feComposite in="SourceGraphic"/>
    </filter>
  </defs>
  <g id="my_Client" data-name="my Client" transform="translate(6 5.312)">
    <g transform="matrix(1, 0, 0, 1, -6, -5.31)" filter="url(#Rectangle_12)">
      <g id="Rectangle_12-2" data-name="Rectangle 12" transform="translate(6 5)" fill="#fff" stroke="#d5d5d5" stroke-width="1">
        <rect width="158" height="82" rx="7" stroke="none"/>
        <rect x="0.5" y="0.5" width="157" height="81" rx="6.5" fill="none"/>
      </g>
    </g>
    <g id="complai" transform="translate(49 9.344)">
      <text id="My_Client-2" data-name="My Client" transform="translate(0 57.535)" fill="#194e78" font-size="14" font-family="Roboto-Bold, Roboto" font-weight="700"><tspan x="0" y="0">My Client</tspan></text>
      <g id="clients" transform="translate(-0.784 0.009)">
        <path id="Path_124" data-name="Path 124" d="M0,33.39a21.86,21.86,0,0,1,.721-2.583,11.1,11.1,0,0,1,8.891-7.034c.188-.034.375-.071.726-.138A7.308,7.308,0,0,1,4,15.768a7.212,7.212,0,0,1,14.356-.058,7.3,7.3,0,0,1-6.17,7.935,12.265,12.265,0,0,1,7.1,3.3,15.2,15.2,0,0,1,4.59-3.927A15.858,15.858,0,0,1,29.6,21.245a9.8,9.8,0,0,1-6.877-4.4,9.235,9.235,0,0,1-1.1-8.109A9.614,9.614,0,0,1,40.378,10.85a9.822,9.822,0,0,1-8.415,10.407A14.667,14.667,0,0,1,42.27,26.944a12.327,12.327,0,0,1,7.111-3.3,7.3,7.3,0,0,1-6.17-7.935,7.212,7.212,0,0,1,14.356.058,7.3,7.3,0,0,1-6.3,7.86c.67.137,1.219.212,1.748.363,4.663,1.329,7.569,4.29,8.448,9.128a1.477,1.477,0,0,0,.106.272V37.24a1.718,1.718,0,0,1-1.7.853q-29.081-.02-58.161,0A1.719,1.719,0,0,1,0,37.24Q0,35.313,0,33.39Zm18.788,2.243H42.775a11.993,11.993,0,0,0-23.986,0ZM38,11.647a7.212,7.212,0,1,0-7.248,7.192A7.234,7.234,0,0,0,38,11.647Zm-21.715,24a32.072,32.072,0,0,1,.469-3.215,22.619,22.619,0,0,1,1.076-3.045c.145-.361-.022-.507-.219-.709a9.033,9.033,0,0,0-14.165,1.9,8.515,8.515,0,0,0-1,5.07Zm42.96,0a20.393,20.393,0,0,0-.3-2.9A8.332,8.332,0,0,0,52.707,26.4a8.835,8.835,0,0,0-8.8,2.316c-.284.265-.22.471-.118.784.428,1.3.861,2.612,1.2,3.94a15.9,15.9,0,0,1,.262,2.206ZM11.2,11.63a4.806,4.806,0,1,0,4.791,4.851A4.852,4.852,0,0,0,11.2,11.63Zm43.99,4.8a4.806,4.806,0,1,0-4.825,4.816A4.854,4.854,0,0,0,55.188,16.425Z" transform="translate(0 0)" fill="#194e78"/>
        <path id="Path_125" data-name="Path 125" d="M156.248,194.2a11.993,11.993,0,0,1,23.986,0ZM173,186.022a1.178,1.178,0,0,0-1.248.754,1.122,1.122,0,0,0,.409,1.386,8.84,8.84,0,0,1,2.618,2.989,1.153,1.153,0,0,0,1.633.522,1.211,1.211,0,0,0,.429-1.716,9.673,9.673,0,0,0-3.2-3.653A3.153,3.153,0,0,0,173,186.022Zm-4.741.993a1.192,1.192,0,1,0-1.212-1.172A1.228,1.228,0,0,0,168.261,187.016Z" transform="translate(-137.459 -158.566)" fill="#8ba4ba"/>
        <path id="Path_126" data-name="Path 126" d="M210.443,29.364a7.212,7.212,0,1,1-7.206-7.234A7.235,7.235,0,0,1,210.443,29.364Z" transform="translate(-172.448 -17.717)" fill="#fff"/>
        <path id="Path_127" data-name="Path 127" d="M285.8,213.77a3.1,3.1,0,0,1,.638.284,9.664,9.664,0,0,1,3.2,3.653,1.21,1.21,0,0,1-.429,1.716,1.152,1.152,0,0,1-1.633-.522,8.841,8.841,0,0,0-2.618-2.989,1.122,1.122,0,0,1-.409-1.386A1.18,1.18,0,0,1,285.8,213.77Z" transform="translate(-250.254 -186.313)" fill="#194e78"/>
        <path id="Path_128" data-name="Path 128" d="M247.291,204.583a1.192,1.192,0,1,1,1.172-1.212A1.229,1.229,0,0,1,247.291,204.583Z" transform="translate(-216.489 -176.133)" fill="#194e78"/>
      </g>
    </g>
  </g>
</svg>
