<svg xmlns="http://www.w3.org/2000/svg" width="44.594" height="36.087" viewBox="0 0 44.594 36.087">
  <g id="_79-users" data-name="79-users" transform="translate(0 -2.988)">
    <circle id="Ellipse_10" data-name="Ellipse 10" cx="7.186" cy="7.186" r="7.186" transform="translate(15.059 9.623)" fill="none" stroke="#fff" stroke-linecap="round" stroke-linejoin="round" stroke-width="2"/>
    <path id="Path_132" data-name="Path 132" d="M28.877,30.939A9.939,9.939,0,1,0,9,30.939Z" transform="translate(3.358 7.137)" fill="none" stroke="#fff" stroke-linecap="round" stroke-linejoin="round" stroke-width="2"/>
    <path id="Path_133" data-name="Path 133" d="M25.679,18.2A7.1,7.1,0,1,0,20,6.84" transform="translate(7.976 0)" fill="none" stroke="#fff" stroke-linecap="round" stroke-linejoin="round" stroke-width="2"/>
    <path id="Path_134" data-name="Path 134" d="M25.42,26.939h8.519A9.939,9.939,0,0,0,24,17" transform="translate(9.655 5.457)" fill="none" stroke="#fff" stroke-linecap="round" stroke-linejoin="round" stroke-width="2"/>
    <path id="Path_135" data-name="Path 135" d="M15.778,6.84A7.1,7.1,0,1,0,10.1,18.2" transform="translate(0.839 0)" fill="none" stroke="#fff" stroke-linecap="round" stroke-linejoin="round" stroke-width="2"/>
    <path id="Path_136" data-name="Path 136" d="M10.939,17A9.939,9.939,0,0,0,1,26.939H9.519" transform="translate(0 5.457)" fill="none" stroke="#fff" stroke-linecap="round" stroke-linejoin="round" stroke-width="2"/>
  </g>
</svg>
