<svg id="image_x5F_add" xmlns="http://www.w3.org/2000/svg" width="22.267" height="19.483" viewBox="0 0 22.267 19.483">
  <path id="Path_11544" data-name="Path 11544" d="M19.483,6.783H16.7L13.917,4H8.349L5.567,6.783H2.783A2.726,2.726,0,0,0,0,9.567v8.35A2.726,2.726,0,0,0,2.783,20.7H10.8a6.257,6.257,0,0,0,11.076-1.314,3.484,3.484,0,0,0,.392-1.47V9.567A2.726,2.726,0,0,0,19.483,6.783ZM9.765,17.68a4.17,4.17,0,1,1,4.643-6.509,6.258,6.258,0,0,0-4.666,6.05C9.742,17.376,9.754,17.528,9.765,17.68ZM16,22.01a4.79,4.79,0,1,1,4.789-4.789A4.8,4.8,0,0,1,16,22.01Z" transform="translate(0 -4)" fill="#fff"/>
  <g id="Group_2823" data-name="Group 2823" transform="translate(12.525 9.742)">
    <path id="Path_11545" data-name="Path 11545" d="M24.958,20.783H22.176V18H20.783v2.783H18v1.392h2.783v2.783h1.393V22.175h2.782Z" transform="translate(-18 -18)" fill="#fff"/>
  </g>
</svg>
